<?xml version="1.0" standalone="no"?>
<!DOCTYPE svg PUBLIC "-//W3C//DTD SVG 20010904//EN"
 "http://www.w3.org/TR/2001/REC-SVG-20010904/DTD/svg10.dtd">
<svg version="1.0" xmlns="http://www.w3.org/2000/svg"
 width="18257.000000pt" height="7783.000000pt" viewBox="0 0 18257.000000 7783.000000"
 preserveAspectRatio="xMidYMid meet">

<g transform="translate(0.000000,7783.000000) scale(0.100000,-0.100000)"
fill="#000000" stroke="none">
<path d="M38815 62649 c-2125 -71 -4236 -421 -6240 -1035 -1836 -563 -3570
-1328 -5215 -2302 -1438 -852 -2813 -1871 -4035 -2993 -2691 -2469 -4783
-5490 -6125 -8844 -675 -1689 -1143 -3388 -1429 -5196 -269 -1697 -352 -3480
-246 -5249 195 -3230 1053 -6410 2510 -9305 465 -923 893 -1661 1460 -2515
1399 -2107 3101 -3965 5087 -5553 2272 -1816 4849 -3204 7615 -4101 1729 -560
3562 -929 5373 -1080 3662 -307 7307 211 10702 1520 2298 886 4451 2122 6373
3659 2015 1611 3731 3491 5147 5640 1241 1883 2216 3945 2884 6102 566 1830
914 3737 1029 5633 29 492 36 690 42 1255 16 1576 -109 3057 -388 4579 -591
3235 -1823 6278 -3650 9016 -1090 1635 -2352 3107 -3804 4439 -2125 1951
-4648 3543 -7290 4601 -840 337 -1514 568 -2370 815 -1695 488 -3514 794
-5300 890 -642 34 -1519 44 -2130 24z m1610 -1819 c2286 -89 4455 -498 6559
-1237 2649 -930 5085 -2346 7236 -4207 l175 -151 -120 -7 c-66 -4 -165 -15
-220 -24 -124 -20 -370 -90 -506 -145 -160 -63 -365 -129 -402 -129 -41 0 -50
10 -66 70 -20 73 -70 132 -171 199 -164 110 -272 116 -373 22 -38 -35 -54 -66
-62 -126 -5 -29 -32 -100 -67 -169 -33 -65 -97 -206 -144 -313 -46 -107 -105
-231 -131 -275 -65 -109 -151 -196 -240 -240 -107 -54 -169 -61 -444 -51
l-236 8 113 154 c62 85 120 161 128 169 14 14 27 14 131 -2 106 -16 118 -16
138 -2 12 9 46 32 75 51 63 42 102 101 137 204 60 182 13 350 -145 512 -109
111 -302 190 -540 219 -52 6 -246 15 -430 20 -355 10 -402 15 -604 69 -139 37
-290 92 -617 224 -712 287 -1145 361 -1554 265 -148 -34 -294 -97 -417 -179
-31 -20 -126 -72 -210 -114 -313 -157 -466 -263 -678 -470 -749 -729 -955
-901 -1330 -1115 -184 -105 -339 -210 -410 -278 l-55 -53 35 7 c19 3 152 40
295 81 372 107 687 162 1185 209 l375 36 500 -6 c275 -3 557 -10 627 -16 l128
-12 31 26 c17 14 35 26 40 26 6 0 32 20 58 45 l48 45 127 -96 126 -95 312 -44
313 -44 410 -130 c370 -116 452 -146 825 -303 l415 -173 340 -203 340 -203
254 -217 c253 -216 256 -219 508 -512 l254 -295 204 -325 c148 -237 244 -405
355 -620 140 -274 158 -315 250 -578 94 -267 102 -298 150 -545 48 -252 50
-275 66 -577 l16 -315 -31 -262 c-21 -174 -48 -342 -81 -500 -48 -223 -57
-253 -147 -482 -56 -142 -110 -299 -129 -375 l-34 -131 1 -565 c0 -494 -3
-598 -22 -830 -16 -185 -26 -268 -35 -276 -11 -9 -5 -14 26 -23 21 -6 73 -34
114 -62 90 -61 91 -66 83 -238 -9 -199 -63 -403 -153 -582 -38 -76 -125 -194
-213 -291 -34 -37 -62 -76 -63 -90 -1 -20 352 -898 404 -1005 12 -23 25 -40
30 -37 5 3 32 -2 61 -12 66 -22 130 -85 255 -252 160 -214 267 -382 569 -897
434 -740 633 -1019 1023 -1435 299 -320 529 -661 650 -965 44 -111 142 -387
165 -464 40 -134 100 -160 277 -117 134 32 225 68 408 160 351 177 607 359
1090 777 466 403 518 444 810 634 227 148 338 232 450 341 196 190 309 394
346 624 28 171 28 183 5 227 -11 23 -35 52 -53 64 -18 12 -52 40 -76 62 -24
21 -80 56 -125 77 -174 83 -362 118 -807 150 -470 34 -651 58 -865 112 -267
68 -440 160 -590 313 -121 124 -189 249 -244 453 -17 61 -40 134 -51 164 -11
29 -20 61 -20 71 0 10 34 57 76 104 70 78 183 225 244 316 14 20 27 37 30 37
3 0 34 -44 70 -97 536 -795 1015 -1144 1665 -1214 161 -17 451 -6 785 31 578
64 879 54 1150 -36 254 -85 405 -205 700 -559 178 -212 316 -353 416 -424 l61
-43 22 -181 c105 -894 151 -1688 151 -2642 0 -543 -9 -864 -35 -1320 -165
-2826 -873 -5608 -2075 -8155 -136 -288 -423 -860 -432 -860 -4 0 -5 6 -2 14
4 11 -64 49 -257 143 -145 70 -465 228 -712 351 -246 122 -474 233 -505 246
-153 65 -561 277 -566 294 -7 21 -250 142 -516 257 -211 91 -503 235 -690 340
-284 159 -411 226 -895 468 -264 132 -572 288 -685 347 -196 103 -265 135
-715 339 -110 50 -321 156 -470 235 -148 79 -367 195 -485 256 -550 288 -1262
681 -1500 828 -145 90 -358 239 -525 367 -77 59 -216 164 -310 235 -252 188
-439 381 -513 526 -11 22 -33 83 -48 135 -25 89 -27 102 -21 239 9 217 22 285
82 446 66 176 70 183 151 291 37 49 97 131 134 183 37 52 110 146 161 207 105
126 336 480 379 582 66 154 93 403 88 816 l-3 310 32 160 c66 321 101 409 225
550 244 278 340 501 444 1029 67 341 80 374 225 556 102 128 127 167 192 295
148 296 182 482 197 1075 9 391 20 502 93 940 40 247 42 262 42 480 0 161 -5
261 -18 353 l-18 128 25 87 c36 122 61 281 61 388 0 96 2 91 -71 191 -15 20
-16 80 -17 550 0 629 7 745 93 1428 71 570 77 631 90 910 9 216 5 369 -20 693
-13 175 -5 263 49 515 38 175 121 437 160 503 57 96 196 625 230 872 30 218
29 479 -4 757 -40 344 -99 536 -352 1140 -317 757 -889 1436 -1648 1957 -839
576 -1946 950 -3080 1042 -376 31 -718 38 -1006 21 -287 -16 -551 -40 -614
-55 -22 -5 -188 -36 -370 -70 -406 -74 -562 -108 -780 -170 -93 -27 -181 -51
-195 -53 -60 -11 -806 -326 -1205 -509 -524 -240 -662 -313 -982 -525 -858
-566 -1516 -1309 -1979 -2235 -398 -795 -629 -1673 -704 -2678 -18 -241 -24
-764 -11 -1025 39 -823 142 -1442 341 -2061 27 -83 54 -178 59 -212 5 -33 16
-73 25 -89 22 -43 119 -131 246 -225 164 -122 203 -159 351 -341 73 -89 136
-164 139 -167 8 -6 198 -286 332 -487 84 -127 96 -141 111 -127 9 9 -113 242
-284 539 -105 184 -183 391 -324 855 -196 645 -256 1044 -256 1691 0 665 59
1058 241 1612 81 246 148 390 254 547 205 302 397 489 630 611 90 47 243 105
253 95 3 -3 -32 -45 -77 -95 -186 -203 -419 -569 -474 -745 -24 -76 -15 -110
32 -114 26 -3 38 4 69 36 80 84 302 247 408 300 79 39 209 85 229 80 12 -2 -8
-33 -78 -117 -163 -195 -264 -359 -419 -681 -161 -336 -246 -576 -302 -852
-77 -382 -88 -628 -79 -1788 6 -928 7 -941 57 -988 13 -12 38 -26 54 -31 82
-24 219 96 423 369 68 91 175 225 237 298 282 331 343 447 343 655 0 111 -10
181 -70 477 -78 387 -93 573 -66 787 19 148 59 315 106 446 67 184 239 428
449 638 310 309 705 539 1139 663 201 58 620 126 906 147 208 16 587 1 774
-31 414 -71 807 -231 1342 -546 577 -340 765 -438 990 -516 231 -80 381 -108
581 -108 291 0 697 140 1144 394 l90 51 160 0 160 0 95 -39 c227 -92 392 -191
542 -323 118 -104 207 -225 253 -345 19 -51 29 -63 19 -24 l-6 25 302 0 c166
1 319 -2 340 -5 37 -6 40 -9 69 -78 74 -178 113 -340 170 -696 98 -614 98
-670 21 -1460 -43 -443 -46 -662 -14 -889 l7 -44 -84 9 c-194 21 -434 3 -634
-47 -43 -11 -163 -51 -265 -88 -310 -114 -879 -299 -985 -320 -234 -47 -372
-61 -603 -61 -177 0 -230 3 -259 15 -52 22 -63 14 -63 -42 0 -65 42 -245 74
-317 31 -69 33 -109 8 -155 -29 -55 -103 -90 -224 -108 -106 -15 -195 -45
-248 -83 -33 -23 -121 -130 -162 -195 -101 -164 -133 -381 -109 -750 21 -329
69 -575 166 -845 34 -96 66 -186 70 -200 14 -49 148 -387 207 -524 69 -159
169 -424 204 -539 30 -98 40 -217 25 -275 -7 -24 -28 -61 -47 -82 -55 -61
-220 -157 -345 -201 -105 -37 -116 -39 -232 -39 -150 0 -310 19 -488 59 -246
55 -636 114 -715 108 -127 -9 -229 -74 -253 -161 -20 -75 36 -175 124 -219 64
-31 135 -38 325 -31 200 7 265 1 435 -41 122 -31 135 -41 136 -114 l1 -56 15
43 c8 23 21 42 29 42 8 0 75 -23 149 -50 225 -83 275 -95 400 -93 61 0 146 9
190 18 144 29 359 156 490 289 67 67 90 99 133 186 29 59 59 136 67 175 21 98
19 226 -4 317 -21 83 -104 255 -202 420 -148 249 -231 403 -400 748 -120 244
-184 420 -223 615 -38 186 -72 509 -57 533 16 26 389 111 494 113 35 0 38 2
20 9 -18 7 -23 18 -25 47 -5 128 5 268 21 287 5 6 8 21 7 31 -2 11 3 35 10 54
8 18 12 37 9 41 -3 5 -1 11 5 15 5 3 10 17 10 30 0 13 5 27 10 30 6 3 10 15
10 26 0 10 4 19 8 19 4 0 16 22 26 49 10 28 24 55 32 62 8 6 14 18 14 25 0 8
3 14 8 14 6 0 17 18 48 78 0 1 39 -16 86 -38 113 -53 251 -88 377 -98 l103 -7
-68 -39 c-64 -37 -290 -241 -276 -250 4 -2 49 -16 101 -30 116 -33 126 -39
226 -115 100 -77 141 -91 186 -65 48 29 67 62 83 143 15 81 31 101 78 101 23
0 37 -12 79 -70 86 -119 162 -169 228 -150 48 14 70 29 87 63 24 46 20 106
-12 177 -32 71 -27 88 27 107 48 17 170 16 223 -2 73 -25 216 -115 281 -178
76 -73 114 -85 202 -63 35 8 98 31 141 50 105 46 152 59 145 40 -3 -8 -9 -14
-13 -14 -4 0 -10 -11 -12 -25 -6 -29 -15 -30 182 11 166 34 160 36 160 -33 -1
-93 -27 -340 -49 -453 -44 -225 -62 -381 -76 -658 -16 -310 -50 -583 -104
-842 -50 -234 -106 -381 -211 -555 -28 -47 -69 -123 -91 -169 -33 -71 -143
-395 -255 -751 -14 -44 -56 -143 -94 -221 -63 -131 -76 -149 -170 -250 -156
-167 -176 -222 -167 -448 3 -78 15 -211 27 -296 40 -294 50 -395 50 -536 0
-237 -53 -562 -110 -680 -57 -117 -242 -347 -424 -530 -204 -203 -354 -368
-407 -445 -42 -63 -190 -363 -221 -449 -45 -127 -78 -293 -88 -444 -18 -281
-31 -358 -82 -485 -77 -194 -161 -266 -466 -395 -81 -35 -206 -88 -278 -119
-160 -70 -245 -92 -444 -117 -332 -41 -600 -49 -1130 -30 -285 10 -355 19
-566 75 -238 63 -422 138 -521 211 -28 22 -76 54 -105 72 -29 18 -99 67 -155
110 -488 371 -487 370 -1048 721 -121 75 -299 188 -396 249 -181 115 -365 217
-616 344 -115 58 -145 70 -155 60 -10 -10 -10 -18 2 -40 18 -32 242 -239 390
-360 58 -47 157 -139 220 -203 102 -103 280 -267 495 -455 95 -84 278 -226
750 -584 417 -317 622 -478 813 -638 100 -84 112 -98 108 -121 -3 -14 -6 -78
-8 -141 -2 -70 -7 -119 -14 -125 -13 -12 -48 -114 -41 -121 2 -2 14 24 25 58
26 79 29 46 7 -91 -18 -107 -28 -133 -51 -124 -14 5 -15 3 -5 -15 15 -28 14
-35 -5 -28 -13 5 -14 3 -6 -6 7 -9 1 -31 -23 -79 l-33 -67 152 -75 c424 -211
891 -346 1254 -364 67 -3 122 -9 122 -13 0 -4 -16 -28 -36 -54 -40 -53 -73
-121 -74 -153 0 -12 -19 -54 -43 -95 -117 -199 -607 -1194 -782 -1588 -90
-203 -192 -421 -350 -750 -93 -193 -131 -287 -226 -555 -29 -81 -36 -129 -21
-139 5 -3 24 12 44 32 105 112 253 337 358 542 63 125 360 748 360 756 0 2 94
193 209 426 114 233 268 547 341 698 73 151 180 372 237 490 57 118 109 218
116 222 32 20 53 5 121 -85 395 -525 869 -1149 894 -1175 17 -18 52 -63 78
-99 79 -111 430 -570 614 -803 59 -74 152 -196 208 -271 116 -158 196 -249
296 -336 69 -61 116 -81 116 -49 0 13 -40 107 -138 321 -32 70 -173 267 -413
575 -252 324 -467 609 -616 815 -269 374 -350 485 -468 640 -66 88 -148 198
-180 244 -33 46 -122 156 -197 245 -76 88 -138 166 -138 171 0 6 53 23 118 39
188 46 316 92 487 176 271 133 452 268 705 527 80 81 177 188 214 236 49 62
71 85 77 75 4 -7 12 -101 19 -208 37 -654 126 -1110 321 -1648 91 -251 103
-291 284 -987 70 -266 90 -442 100 -850 10 -389 15 -490 24 -493 34 -12 119
213 166 443 18 88 43 198 54 245 79 327 74 509 -35 1389 -9 72 2 63 65 -48
386 -686 685 -1333 984 -2131 211 -564 377 -1090 506 -1605 299 -1196 447
-2219 513 -3535 24 -503 8 -1891 -23 -1952 -15 -28 -962 -684 -1061 -734 -18
-9 -127 -76 -243 -149 -568 -358 -1342 -792 -1885 -1057 -102 -50 -187 -93
-190 -97 -9 -11 -119 -65 -124 -60 -2 2 -38 94 -79 204 -801 2141 -1881 4457
-3065 6570 -967 1728 -1887 3140 -2827 4340 -467 597 -1018 1185 -1442 1541
-296 247 -810 540 -1062 605 -29 7 -55 18 -57 24 -2 5 -15 102 -29 215 -14
113 -41 318 -60 455 -18 138 -43 336 -55 440 -53 476 -207 1652 -265 2018 -19
125 -51 337 -70 470 -19 133 -46 303 -60 377 -13 74 -42 243 -64 375 -91 543
-273 1366 -406 1836 -130 461 -332 1068 -532 1604 -94 252 -400 946 -507 1150
-393 748 -435 821 -624 1095 -399 579 -679 918 -1098 1330 -949 932 -2070
1581 -3327 1925 -1183 324 -2412 327 -3542 9 -756 -213 -1437 -548 -2059
-1013 -359 -268 -696 -586 -997 -941 -56 -66 -105 -120 -110 -120 -4 0 -38 8
-76 17 -51 12 -112 17 -243 16 -372 0 -638 -65 -960 -234 -201 -105 -288 -170
-589 -433 -292 -255 -358 -331 -653 -753 -229 -326 -304 -466 -416 -773 -185
-508 -307 -1126 -343 -1740 -54 -920 138 -2610 497 -4385 198 -973 494 -2226
752 -3180 322 -1186 390 -1446 570 -2170 484 -1943 616 -2534 837 -3750 125
-688 208 -1254 259 -1765 32 -324 47 -692 28 -704 -5 -3 -12 -81 -16 -173 -4
-92 -13 -204 -19 -248 l-12 -79 -215 -63 c-118 -35 -228 -65 -245 -67 -32 -3
-115 21 -115 34 0 4 -16 11 -35 14 -20 4 -33 11 -30 16 3 4 -5 6 -17 2 -15 -4
-19 -2 -13 8 5 8 3 11 -6 8 -8 -3 -36 4 -64 15 -59 23 -131 47 -164 53 -13 3
-32 9 -41 14 -10 5 -20 6 -24 3 -3 -3 -6 -1 -6 5 0 6 -7 9 -16 5 -19 -7 -66
17 -60 32 2 6 -9 12 -26 13 -16 1 -46 10 -66 18 -35 15 -56 21 -75 23 -5 1 -6
5 -2 10 3 5 -4 12 -15 16 -11 3 -20 10 -20 15 0 5 -9 12 -20 15 -11 4 -18 11
-15 16 9 14 0 12 -142 -31 -251 -76 -565 -202 -772 -311 l-94 -49 -300 297
c-832 829 -1506 1601 -2175 2495 -937 1252 -1697 2517 -2365 3938 -1229 2616
-1949 5551 -2067 8425 -5 138 -12 305 -15 373 -3 67 -3 122 0 122 24 0 69 -38
101 -87 98 -148 190 -478 264 -943 11 -74 30 -168 41 -208 69 -257 229 -365
534 -364 145 1 273 22 583 96 367 88 489 104 658 87 224 -24 290 -43 856 -240
273 -95 409 -121 758 -146 325 -23 524 -58 763 -135 115 -37 149 -63 213 -164
25 -39 82 -108 127 -153 78 -79 84 -83 127 -84 25 0 83 -6 130 -13 154 -21
281 25 366 133 50 64 77 113 65 121 -5 3 -12 30 -16 60 -27 208 -120 533 -246
855 -73 188 -126 290 -188 369 -67 84 -128 117 -226 121 -71 3 -78 6 -162 61
-103 67 -220 177 -308 289 -109 141 -247 347 -287 432 -53 112 -83 138 -175
159 -88 19 -108 13 -168 -47 -22 -23 -48 -45 -57 -50 -10 -5 -129 -132 -264
-282 -260 -287 -291 -314 -454 -397 -92 -46 -180 -76 -252 -85 -72 -9 -157 13
-283 75 -176 85 -288 198 -370 373 -82 175 -113 389 -95 650 29 410 124 736
277 957 219 314 543 498 1222 691 560 159 798 117 1125 -200 87 -85 269 -295
380 -441 72 -95 105 -121 204 -165 160 -70 262 -32 342 128 55 111 34 205
-114 507 -134 270 -224 563 -233 750 -5 101 -3 123 17 180 51 153 127 254 402
530 117 118 226 235 243 260 16 25 48 62 71 82 40 37 92 122 113 188 6 19 17
78 25 130 84 574 130 808 203 1034 238 741 656 1170 1568 1612 318 154 567
262 810 354 275 103 399 156 545 231 209 108 344 227 386 340 23 62 24 195 2
235 -25 46 -109 95 -207 121 -116 30 -154 29 -270 -11 -138 -48 -191 -51 -191
-12 0 44 114 171 316 351 236 209 383 293 414 236 17 -33 12 -60 -30 -138 -35
-68 -40 -84 -40 -145 0 -73 26 -143 56 -155 33 -12 108 24 364 177 305 182
412 255 523 360 143 134 235 296 245 430 4 59 1 72 -26 126 -32 64 -74 107
-140 144 -74 42 -115 143 -168 419 -19 102 -42 211 -51 241 -36 127 -135 266
-208 290 -18 6 -82 14 -143 19 -70 5 -117 13 -128 22 -33 27 -359 530 -413
637 -13 25 -29 93 -40 166 -21 136 -42 189 -93 231 -46 39 -90 56 -167 62 -99
8 -158 -13 -266 -94 -49 -38 -122 -88 -162 -111 -40 -23 -87 -61 -105 -83 -18
-22 -42 -52 -53 -65 -11 -14 -38 -29 -60 -34 -44 -10 -584 -14 -609 -4 -12 5
-15 15 -10 45 8 48 -27 112 -86 159 -23 18 -56 56 -74 84 -55 86 -135 175
-176 196 -85 43 -214 35 -328 -21 -86 -42 -183 -142 -276 -284 -42 -63 -110
-168 -153 -232 -96 -148 -211 -266 -301 -308 l-63 -30 5 -42 c3 -24 17 -70 32
-104 86 -206 87 -425 3 -667 -40 -114 -126 -295 -177 -368 -55 -83 -106 -187
-157 -323 -42 -114 -43 -121 -65 -361 -12 -134 -26 -250 -31 -256 -20 -24
-154 -77 -241 -95 -103 -21 -299 -26 -389 -9 -63 11 -108 54 -128 120 -6 22
-39 76 -72 119 -82 107 -121 121 -259 96 -127 -23 -286 -40 -370 -38 -161 2
-278 83 -403 277 -28 42 -42 52 -107 79 -99 40 -204 109 -231 153 -32 53 -22
105 49 248 155 312 405 638 739 967 206 203 365 336 605 504 226 159 301 219
404 326 108 114 184 233 316 493 118 235 199 377 268 472 75 102 219 241 395
382 182 145 338 289 361 335 8 15 26 76 39 135 34 155 123 390 181 485 46 73
105 146 124 152 69 22 186 -112 280 -320 30 -67 36 -73 118 -125 97 -63 216
-175 250 -237 l22 -41 -52 -42 c-29 -23 -104 -68 -168 -100 -129 -66 -273
-183 -315 -254 -25 -43 -60 -165 -71 -247 -8 -62 9 -123 46 -169 26 -31 33
-35 77 -34 26 1 80 9 118 19 56 14 97 16 210 12 130 -6 221 -17 655 -83 204
-32 519 -43 638 -24 156 25 277 84 364 177 56 61 89 124 113 219 15 60 16 84
8 170 -9 90 -8 107 14 194 42 171 138 336 245 420 29 23 87 60 130 81 106 53
152 97 201 193 42 81 42 81 42 192 0 107 -1 112 -38 187 -43 87 -110 165 -200
233 -128 96 -240 132 -521 170 -283 37 -464 88 -667 188 -130 65 -195 111
-295 210 -145 146 -199 270 -198 461 1 146 27 244 109 410 109 224 289 459
466 610 109 93 163 146 935 903 l481 471 109 11 c141 13 242 13 322 -1 115
-20 137 -71 81 -185 -35 -68 -87 -123 -209 -219 -162 -127 -251 -228 -311
-352 -63 -129 -75 -189 -61 -289 5 -42 12 -77 14 -80 3 -2 30 -9 61 -14 97
-18 170 11 294 116 43 37 103 83 133 103 30 20 86 64 124 99 42 38 101 78 151
103 71 35 94 42 167 46 132 9 245 -26 379 -118 86 -58 244 -212 340 -332 118
-146 112 -129 81 -217 -22 -63 -26 -93 -26 -185 -1 -60 5 -155 13 -210 18
-135 8 -241 -105 -1055 -71 -513 -78 -597 -64 -766 40 -499 194 -915 420
-1127 77 -73 132 -103 219 -119 157 -29 349 65 567 279 129 127 155 163 341
468 231 381 385 669 668 1253 203 420 246 498 333 598 198 229 444 381 1007
624 317 136 585 265 725 350 306 184 562 404 790 680 488 588 611 726 1082
1212 235 243 251 262 288 341 47 100 71 188 63 228 -5 28 -53 79 -74 79 -10 0
-159 118 -159 126 0 11 46 94 81 145 50 74 178 226 283 336 70 73 94 92 145
111 41 16 71 21 90 17 25 -5 36 0 71 32 47 41 113 135 137 190 8 20 21 95 28
167 14 141 33 206 134 462 101 258 184 364 501 639 277 240 402 381 484 542
41 81 65 148 58 160 -11 17 -117 33 -223 33 -182 0 -330 -68 -594 -271 -93
-73 -185 -138 -203 -145 -56 -25 -272 -74 -390 -89 -147 -19 -369 -19 -522 1
-103 13 -151 14 -310 5 -206 -12 -303 -27 -485 -72 -605 -151 -1223 -425
-2110 -934 -347 -200 -928 -551 -1225 -742 -563 -361 -830 -502 -1158 -613
-235 -79 -261 -82 -787 -90 -501 -8 -557 -13 -727 -70 -48 -16 -116 -44 -150
-62 -60 -31 -69 -33 -173 -33 -98 -1 -119 -4 -193 -33 -204 -77 -509 -289
-1142 -792 -621 -494 -796 -612 -1330 -900 -360 -194 -471 -258 -635 -365
-299 -196 -490 -367 -701 -630 -447 -556 -786 -1092 -939 -1490 -62 -160 -63
-170 -27 -257 62 -149 77 -227 77 -403 0 -168 -9 -221 -57 -342 l-23 -57 -269
-118 c-148 -65 -269 -117 -270 -116 -1 2 -11 32 -23 68 -58 178 -101 275 -138
307 -52 45 -99 64 -182 77 -190 27 -347 -53 -423 -217 -67 -143 -80 -255 -80
-658 1 -184 -4 -347 -10 -394 -73 -512 -340 -884 -750 -1045 -58 -23 -389 -90
-443 -90 -18 0 -70 -19 -116 -42 -74 -38 -91 -43 -151 -43 -60 0 -74 4 -112
30 -78 55 -132 178 -158 364 -10 71 -9 75 16 118 21 37 38 51 93 75 36 17 80
42 96 56 17 14 91 54 165 90 112 54 145 75 196 126 102 102 174 275 174 416 0
83 -21 154 -61 210 -37 52 -55 15 142 304 203 298 491 700 545 759 25 28 52
65 61 81 32 63 409 545 686 879 l139 167 59 0 c32 0 107 10 166 22 69 14 144
22 208 22 92 0 107 -3 195 -38 82 -33 103 -38 157 -34 156 10 241 163 166 300
-49 89 -222 195 -396 241 l-88 23 197 214 c227 247 921 944 1164 1170 1891
1756 4055 3176 6360 4172 2542 1098 5224 1708 7990 1817 304 12 1376 12 1675
1z m7235 -8441 c465 -24 943 -89 1375 -186 653 -146 1348 -416 1755 -681 47
-30 121 -78 165 -105 188 -116 459 -339 635 -523 408 -426 668 -909 773 -1434
44 -218 51 -302 51 -565 0 -232 -2 -259 -27 -375 -59 -277 -189 -618 -239
-628 -16 -3 -18 8 -18 130 0 223 -53 511 -144 782 -53 157 -183 481 -237 587
-106 212 -178 321 -359 549 -193 241 -343 386 -615 595 -366 282 -601 423
-1021 611 -436 195 -1060 405 -1495 504 -202 46 -904 172 -859 154 312 -122
399 -162 595 -272 196 -111 592 -386 780 -543 219 -184 533 -510 696 -724 312
-409 630 -979 753 -1347 104 -312 156 -547 140 -635 -4 -23 -25 -50 -68 -90
-66 -61 -283 -211 -451 -310 -141 -83 -155 -67 -230 272 -49 220 -94 381 -152
535 -286 767 -915 1489 -1755 2014 -695 435 -1558 725 -2453 825 -314 35 -501
45 -845 45 -491 0 -722 -22 -1492 -147 -51 -8 -77 -7 -109 2 l-41 13 32 33
c22 23 78 54 169 94 309 136 587 239 906 338 542 167 825 237 1307 323 845
150 1658 203 2478 159z m-3230 -1329 c1072 -51 2224 -410 3190 -995 571 -346
1076 -830 1334 -1279 70 -120 178 -360 217 -479 72 -219 98 -483 65 -647 -24
-117 -70 -255 -106 -317 -32 -56 -57 -66 -101 -43 -27 15 -129 225 -269 555
-129 306 -290 552 -563 864 -113 128 -366 375 -492 479 -147 121 -415 314
-415 299 0 -2 84 -78 188 -169 517 -455 687 -646 904 -1013 180 -306 408 -793
408 -872 0 -47 -34 -90 -81 -104 -35 -11 -55 -10 -124 4 -163 33 -262 68 -430
151 -315 155 -391 221 -692 596 -238 296 -417 493 -715 786 -577 565 -898 809
-1379 1046 -195 96 -803 357 -1031 442 -284 106 -739 239 -903 265 -220 35
-420 49 -585 40 -140 -8 -418 -33 -617 -56 -45 -5 -53 -3 -53 10 0 30 126 85
465 203 364 127 802 210 1231 233 219 12 315 12 554 1z m5327 -341 c169 -97
279 -170 468 -312 126 -95 204 -165 372 -333 236 -238 386 -400 487 -525 252
-314 412 -663 482 -1057 25 -139 27 -136 -234 -394 -259 -257 -307 -287 -391
-243 -43 22 -50 54 -49 240 0 265 -39 487 -142 795 -217 653 -608 1307 -1072
1796 -63 66 -84 104 -57 104 7 0 67 -32 136 -71z m2781 -797 c113 -244 230
-712 262 -1051 9 -95 9 -157 1 -270 -16 -195 -46 -395 -77 -511 -42 -161 -182
-471 -299 -665 -88 -146 -128 -184 -213 -203 l-42 -10 0 67 c0 77 14 110 120
295 76 132 194 388 234 507 70 209 114 622 102 959 -9 286 -39 503 -107 789
-16 68 -29 132 -29 142 0 36 17 19 48 -49z m-9036 -622 c852 -58 1727 -327
2447 -755 151 -89 188 -124 197 -181 9 -65 -9 -102 -64 -126 -92 -41 -833 -44
-1032 -4 -77 15 -95 24 -177 87 -234 179 -656 416 -932 524 -300 116 -667 181
-1096 192 -331 9 -539 -16 -930 -113 -292 -71 -444 -121 -562 -184 -97 -52
-123 -60 -123 -37 0 19 100 112 180 169 85 60 285 169 380 207 104 41 276 86
492 127 101 19 240 46 310 59 217 42 593 56 910 35z m-11154 -4726 c879 -70
1756 -302 2509 -664 166 -80 237 -125 507 -321 378 -274 617 -479 956 -818
568 -569 1060 -1207 1520 -1971 229 -380 348 -633 630 -1340 371 -930 710
-1924 1004 -2943 136 -468 174 -638 231 -1012 15 -93 39 -242 55 -330 16 -88
43 -243 60 -345 16 -102 41 -241 55 -310 14 -69 36 -197 50 -285 14 -88 41
-243 60 -345 19 -102 53 -300 74 -440 22 -141 49 -305 60 -366 30 -169 127
-871 156 -1129 14 -126 30 -257 35 -290 5 -33 25 -184 45 -335 128 -1003 261
-1832 391 -2425 70 -322 67 -313 121 -500 25 -88 65 -241 90 -340 24 -99 62
-241 83 -315 22 -74 60 -238 85 -365 129 -645 285 -1184 689 -2385 31 -91 56
-167 56 -170 0 -12 -192 335 -308 560 -73 140 -230 509 -363 853 -27 70 -77
221 -110 335 -33 114 -87 293 -119 397 -92 298 -164 554 -214 755 -114 468
-139 568 -191 765 -30 116 -76 309 -100 430 -25 121 -72 330 -105 465 -32 135
-80 353 -105 485 -26 132 -71 348 -100 480 -30 132 -77 362 -104 510 -28 149
-76 392 -107 540 -30 149 -86 452 -124 675 -38 223 -85 495 -105 605 -19 110
-55 335 -80 500 -24 165 -55 370 -69 455 -13 85 -38 259 -56 385 -17 127 -44
309 -60 405 -16 96 -49 306 -74 466 -25 159 -72 429 -105 600 -33 170 -72 377
-86 459 -15 83 -56 256 -90 385 -35 129 -90 345 -124 480 -33 135 -92 345
-130 466 -38 122 -88 286 -111 365 -62 216 -104 342 -190 574 -43 116 -110
298 -150 405 -40 107 -86 227 -102 265 -33 75 -167 327 -192 360 -29 38 -16
-5 35 -112 86 -185 114 -259 204 -548 47 -154 111 -356 142 -450 75 -232 293
-1093 353 -1394 26 -135 69 -338 94 -451 25 -113 61 -295 81 -405 20 -110 58
-317 86 -460 27 -143 70 -392 95 -555 24 -162 56 -360 69 -440 13 -80 43 -278
65 -440 22 -162 51 -362 65 -445 13 -82 45 -292 70 -465 26 -173 64 -414 86
-535 21 -121 64 -366 94 -545 30 -179 75 -426 100 -550 50 -244 94 -468 150
-765 20 -104 56 -275 80 -380 24 -104 66 -309 95 -455 28 -146 78 -375 110
-510 32 -135 79 -344 104 -465 25 -121 73 -323 106 -450 33 -126 96 -376 139
-555 82 -337 132 -523 199 -745 22 -71 72 -238 112 -370 153 -512 254 -784
442 -1180 44 -93 124 -264 178 -380 53 -115 116 -240 139 -278 36 -60 309
-534 501 -872 84 -148 333 -645 326 -652 -14 -14 -367 298 -601 532 -906 906
-1724 2127 -2380 3550 -650 1412 -1108 2991 -1300 4485 -28 225 -71 646 -115
1140 -37 407 -48 475 -87 507 -30 24 -81 30 -113 13 -10 -6 -60 -61 -110 -123
-50 -61 -147 -170 -214 -242 -78 -83 -127 -143 -135 -166 -41 -124 -101 -682
-101 -936 0 -259 28 -729 60 -988 16 -132 36 -323 45 -425 9 -102 31 -295 50
-430 19 -135 44 -321 55 -415 11 -93 29 -233 40 -310 23 -168 46 -407 55 -565
3 -63 12 -194 20 -290 29 -364 47 -1342 30 -1675 -6 -131 -1 -161 27 -150 52
20 151 344 184 603 4 29 10 54 14 57 4 2 15 -46 24 -108 48 -314 121 -617 232
-958 145 -447 315 -819 588 -1286 44 -75 49 -90 62 -193 8 -62 35 -216 59
-344 111 -587 139 -939 116 -1476 -16 -378 -60 -942 -74 -957 -8 -7 -37 9 -31
18 3 5 -7 9 -21 9 -20 0 -26 -4 -21 -15 5 -13 2 -13 -25 1 -17 8 -28 18 -25
21 6 6 -22 60 -49 91 -11 13 -49 39 -85 57 -79 40 -163 96 -203 135 -17 16
-34 27 -39 24 -4 -3 -8 0 -8 6 0 17 -73 79 -84 73 -5 -4 -7 0 -4 9 8 19 1 28
-44 58 -20 13 -35 27 -33 30 2 3 -16 19 -41 35 -25 17 -42 36 -39 43 3 7 0 10
-5 7 -12 -7 -49 33 -50 53 0 6 -4 12 -9 12 -5 0 -22 10 -36 23 -86 70 -126
114 -175 190 -30 47 -69 95 -87 107 -27 18 -31 26 -23 41 9 15 4 23 -30 45
-40 27 -51 44 -27 44 6 0 -3 12 -21 26 -35 28 -66 77 -54 88 3 4 -17 29 -46
55 -35 32 -50 53 -47 64 4 8 1 18 -4 22 -6 3 -9 10 -6 15 6 9 -43 65 -64 71
-9 3 -11 10 -7 18 6 9 12 8 23 -6 8 -10 7 -5 -3 12 -76 127 -104 177 -104 185
0 6 -4 18 -9 28 -12 21 -24 54 -25 66 -4 37 -35 -13 -126 -202 -155 -319 -310
-585 -733 -1257 -191 -304 -356 -545 -373 -545 -7 0 -38 46 -70 103 -137 242
-366 559 -570 788 -310 347 -461 494 -720 698 -76 61 -170 140 -209 177 -84
79 -99 88 -132 79 -15 -3 -136 -115 -292 -269 -146 -145 -331 -322 -411 -395
-88 -80 -149 -144 -156 -162 -5 -16 -14 -26 -18 -22 -5 5 -6 -5 -2 -20 4 -17
3 -26 -2 -23 -5 3 -15 -16 -21 -42 -7 -26 -17 -62 -22 -80 -6 -18 -13 -44 -15
-59 -3 -16 -11 -35 -19 -43 -7 -8 -13 -17 -13 -20 0 -3 -8 -32 -18 -65 -19
-63 -21 -70 -23 -97 0 -9 -8 -24 -17 -32 -8 -9 -13 -16 -10 -16 4 0 -5 -23
-20 -51 -14 -28 -32 -79 -39 -113 -18 -80 -95 -297 -112 -314 -7 -7 -14 -22
-14 -33 -2 -28 -3 -32 -13 -48 -13 -20 12 -4 70 46 27 23 145 124 262 224 117
99 320 286 451 415 131 129 246 234 254 234 31 0 146 -69 263 -157 153 -116
464 -400 464 -424 0 -11 -24 -34 -60 -59 -108 -73 -584 -481 -795 -680 -182
-172 -272 -252 -490 -436 -99 -84 -247 -214 -330 -289 -82 -76 -238 -212 -345
-303 -107 -91 -296 -254 -420 -362 -124 -108 -306 -263 -405 -345 -99 -82
-238 -203 -310 -268 -71 -66 -208 -182 -303 -259 -95 -77 -215 -176 -265 -220
-150 -130 -284 -208 -357 -208 -42 0 -78 28 -97 77 -16 42 -18 78 -17 303 1
295 -5 255 138 1045 97 536 144 828 151 941 3 49 0 67 -14 86 -25 33 -31 54
-19 66 8 8 6 16 -6 27 -9 9 -16 25 -16 36 0 11 -12 36 -26 54 -14 19 -24 38
-21 42 2 4 -4 16 -14 25 -10 9 -19 12 -21 7 -2 -6 -14 -1 -27 10 -27 24 -47
27 -54 9 -4 -9 -8 -9 -14 -3 -11 14 -56 12 -61 -3 -2 -7 -8 -10 -13 -6 -5 3
-9 0 -9 -6 0 -6 -8 -9 -18 -6 -16 5 -22 -11 -49 -146 -77 -376 -136 -652 -192
-888 -33 -140 -80 -352 -106 -470 -25 -118 -60 -271 -76 -340 -17 -69 -63
-272 -104 -451 -66 -290 -199 -827 -207 -834 -5 -5 -583 286 -785 396 -325
175 -653 362 -653 372 0 26 119 392 291 894 105 307 229 671 274 808 46 138
117 349 159 469 42 121 76 220 76 222 0 1 -14 5 -31 9 -22 5 -34 3 -40 -6 -4
-7 -11 -10 -15 -7 -4 4 -15 3 -25 -2 -12 -7 -20 -7 -24 0 -4 6 -11 8 -16 4
-16 -10 -59 5 -59 20 0 8 -7 17 -16 20 -9 4 -13 2 -8 -5 5 -8 -12 -9 -57 -4
-84 9 -167 30 -148 38 11 4 10 6 -3 6 -9 1 -23 -5 -31 -13 -17 -18 -97 -10
-113 11 -7 7 -27 15 -45 17 -19 2 -47 9 -64 16 -16 6 -52 14 -80 17 -27 3 -60
6 -72 7 -12 1 -37 15 -57 29 -19 15 -41 27 -48 27 -20 0 -62 -47 -175 -195
-54 -71 -149 -193 -210 -270 -176 -223 -273 -363 -273 -395 0 -16 21 -59 52
-106 110 -169 362 -581 384 -629 13 -27 24 -62 24 -77 0 -29 -11 -37 -140
-106 -41 -21 -153 -87 -249 -144 l-173 -106 -79 51 -79 50 124 68 c262 142
366 225 366 292 0 62 -59 137 -208 260 -138 114 -321 257 -399 312 -24 17 -43
34 -43 39 0 4 13 25 28 45 56 72 313 443 552 796 327 483 542 797 855 1245
144 206 472 679 730 1050 258 371 546 785 640 920 94 135 207 297 250 360 82
119 470 678 628 904 63 90 92 124 98 114 4 -7 -1 -85 -12 -173 -10 -88 -30
-353 -44 -590 -14 -236 -27 -455 -30 -485 -27 -278 -24 -753 6 -1000 10 -83
90 -344 112 -365 7 -7 8 -6 3 2 -4 7 -3 30 3 50 5 21 15 90 21 153 13 129 35
241 56 283 8 15 16 27 18 27 2 0 32 -53 66 -117 35 -65 100 -181 145 -258 218
-369 442 -813 496 -984 31 -97 53 -141 68 -141 4 0 11 120 14 268 3 147 13
332 22 412 8 80 22 242 30 360 20 286 27 334 90 693 181 1019 462 1657 1133
2572 383 521 713 937 1337 1680 110 131 243 291 295 355 534 660 679 847 863
1112 144 209 160 236 198 339 17 46 68 154 114 239 156 288 260 567 316 849
24 123 29 341 10 433 -21 100 -83 160 -111 108 -6 -12 -33 -85 -60 -163 -226
-663 -676 -1343 -1449 -2192 -543 -595 -1323 -1304 -1946 -1771 -251 -188
-308 -226 -536 -352 -118 -66 -236 -133 -264 -149 -405 -238 -787 -349 -1326
-384 -366 -24 -786 46 -926 153 -84 65 -232 225 -340 369 -112 149 -148 206
-250 394 -114 210 -324 555 -414 679 -145 201 -188 267 -266 411 -89 163 -189
328 -284 471 -37 55 -125 194 -196 310 -72 115 -233 367 -358 559 -308 472
-396 613 -495 790 -97 174 -300 587 -370 754 -177 423 -264 848 -246 1211 13
245 65 683 115 956 40 216 55 365 49 495 -3 63 -2 109 3 109 5 0 35 -13 67
-29 46 -23 61 -37 79 -75 49 -99 162 -190 277 -221 72 -20 100 -17 71 6 -10 7
-48 43 -85 79 -91 89 -134 176 -138 280 -3 92 8 118 68 148 57 28 219 69 307
78 63 7 66 6 58 -12 -14 -34 -18 -205 -5 -263 27 -124 113 -253 204 -306 211
-123 514 -89 684 78 61 59 85 101 118 202 15 45 27 69 36 67 7 -2 62 -33 121
-69 98 -59 111 -70 129 -112 38 -88 67 -187 88 -301 41 -228 49 -344 77 -1095
5 -146 8 -178 14 -140 13 81 25 771 18 1030 -9 315 -25 378 -150 581 -22 36
-37 69 -34 75 8 12 -153 416 -211 529 -59 117 -68 128 -166 217 -65 60 -113
93 -204 140 -129 66 -381 168 -589 237 -71 24 -204 76 -295 116 -91 39 -205
87 -255 106 -49 20 -151 59 -225 89 -164 66 -279 91 -338 75 -45 -12 -173 -93
-211 -134 -30 -32 -47 -33 -54 -3 -4 12 -18 117 -32 232 -22 179 -27 262 -31
560 -2 193 -9 613 -15 935 -13 666 -6 864 41 1231 61 468 146 777 292 1059
104 201 183 303 303 395 150 115 272 168 385 167 85 -1 218 -35 310 -81 76
-38 283 -170 450 -287 179 -125 229 -146 339 -146 112 0 152 14 336 122 371
218 628 322 995 404 466 103 1060 109 1640 15 486 -78 1113 -271 1352 -415
356 -215 589 -396 929 -720 124 -119 474 -474 495 -502 1 -2 20 6 43 17 22 12
49 21 60 21 11 0 23 5 26 10 4 6 10 8 15 5 5 -3 11 -1 14 4 12 19 49 -4 114
-74 145 -155 283 -358 388 -570 77 -156 147 -345 131 -350 -7 -2 -31 -5 -53
-8 -46 -5 -96 -26 -101 -42 -2 -6 32 -15 81 -22 66 -9 494 -129 731 -205 l40
-13 107 -375 c130 -450 165 -600 218 -916 58 -351 227 -1145 248 -1166 17 -17
76 29 211 166 222 224 383 447 565 786 80 147 172 276 246 343 77 69 199 142
313 186 87 34 99 36 212 36 98 0 134 -4 195 -23 68 -21 82 -30 145 -95 51 -52
84 -97 118 -164 59 -115 121 -299 142 -423 22 -124 31 -495 16 -621 -17 -145
-114 -556 -174 -739 -127 -386 -289 -662 -555 -942 -195 -206 -242 -293 -242
-446 0 -59 2 -66 34 -98 70 -70 147 -39 267 108 44 53 126 137 182 187 217
188 315 323 394 540 66 182 167 636 193 871 6 52 25 156 41 230 47 211 59 317
59 530 0 366 -52 627 -175 871 -73 144 -197 284 -296 335 -125 63 -344 90
-486 59 -45 -10 -88 -15 -95 -13 -7 3 -19 32 -26 64 -8 33 -34 121 -58 197
-588 1808 -2717 3313 -5302 3747 -541 91 -1021 126 -1577 117 -509 -9 -903
-48 -1125 -112 -67 -19 -124 -35 -126 -35 -9 0 10 57 44 130 46 103 108 193
183 268 l64 64 -1 124 -2 124 87 55 c229 144 592 276 975 355 251 51 545 85
915 105 255 14 298 19 435 50 226 51 422 83 596 95 85 6 171 14 190 17 l35 6
-30 8 c-39 12 -386 56 -545 69 -202 18 -781 24 -1015 11 -643 -35 -1165 -117
-2043 -322 -290 -68 -312 -71 -392 -66 -144 10 -280 63 -280 110 0 68 192 272
361 383 58 38 164 100 235 138 125 65 130 68 126 96 -5 37 8 45 180 114 214
86 557 200 858 285 436 124 659 170 1030 211 104 12 248 36 330 55 257 60 532
102 830 126 80 6 146 12 148 14 6 6 -158 26 -300 36 -165 13 -537 2 -933 -26
-778 -56 -1433 -202 -2131 -475 -346 -136 -432 -176 -719 -335 -441 -244 -639
-339 -697 -333 -62 6 -58 25 33 158 205 304 446 562 759 816 291 235 695 473
1085 637 613 259 1331 410 2095 441 152 6 571 -5 758 -20z m19701 -2391 c0
-65 -4 -100 -8 -88 -5 11 -6 25 -3 30 3 6 1 6 -4 2 -5 -5 -7 -10 -4 -11 3 -2
-10 -16 -28 -31 -23 -19 -30 -30 -21 -35 8 -6 4 -16 -15 -35 -14 -14 -24 -31
-21 -36 4 -5 1 -9 -4 -9 -6 0 -11 -5 -11 -11 0 -7 -7 -17 -16 -23 -8 -6 -16
-19 -17 -27 -2 -9 -10 -24 -20 -33 -9 -10 -17 -23 -17 -30 0 -7 -9 -21 -19
-30 -18 -17 -27 -15 -188 28 -92 25 -199 53 -238 61 -124 25 -326 45 -472 45
-78 0 -144 4 -147 9 -11 16 459 194 714 270 173 51 225 59 388 60 l152 1 -1
-107z m-25538 -6427 c68 -18 919 -306 1004 -340 33 -13 134 -55 225 -94 504
-212 605 -265 747 -390 83 -73 89 -82 110 -147 13 -38 21 -70 20 -71 -1 -1
-34 27 -72 62 -223 206 -477 362 -725 446 -136 46 -236 65 -391 74 -127 7
-209 -1 -447 -47 -224 -42 -211 -45 -311 56 l-84 85 -42 -25 c-23 -13 -50 -36
-59 -50 -9 -14 -21 -23 -27 -20 -13 9 -140 263 -185 371 -19 47 -33 93 -29
102 5 13 21 14 108 9 56 -4 127 -13 158 -21z m1303 -899 c28 -21 19 -97 -15
-116 -37 -21 -76 -7 -96 33 -20 42 -12 63 29 81 41 18 60 18 82 2z m13518
-4001 c314 -265 802 -745 1156 -1136 1151 -1273 2360 -3043 3481 -5097 99
-183 181 -334 181 -337 0 -3 29 -58 64 -123 185 -344 532 -1033 521 -1033 -2
0 -56 98 -121 218 -161 298 -457 832 -509 917 -23 39 -109 185 -190 325 -294
507 -730 1206 -1085 1739 -1224 1839 -2479 3264 -3603 4094 l-118 88 6 77 c8
92 50 356 60 371 3 6 10 11 14 11 4 0 69 -51 143 -114z m10534 -118 c109 -47
734 -292 1254 -493 1410 -543 3099 -1303 4320 -1945 107 -56 380 -197 605
-312 458 -235 937 -496 949 -516 6 -12 -491 -841 -505 -842 -3 0 -95 70 -205
156 -203 160 -285 220 -554 409 -326 229 -417 284 -451 273 -6 -2 13 -35 43
-73 158 -205 466 -650 632 -915 44 -69 110 -173 148 -232 72 -110 71 -109 39
-158 -8 -11 -40 16 -158 131 -81 79 -256 234 -388 344 -132 109 -303 251 -380
315 -201 167 -277 224 -585 440 -648 454 -1409 936 -1540 975 -16 5 87 -106
270 -291 306 -309 470 -484 619 -659 121 -143 235 -284 240 -298 4 -12 -106
86 -374 334 -363 336 -620 538 -965 761 -63 41 -205 151 -315 244 -110 94
-285 239 -390 324 -426 345 -519 422 -715 591 -113 97 -333 292 -490 434 -277
250 -423 375 -925 788 -271 223 -322 267 -309 267 6 0 64 -23 130 -52z
m-26452 -463 c111 -385 157 -554 345 -1267 169 -641 300 -1109 465 -1658 243
-814 416 -1495 570 -2245 65 -320 96 -618 96 -940 0 -358 -26 -622 -87 -890
-21 -94 -28 -70 -37 124 -38 877 -356 2725 -760 4416 -158 662 -430 1760 -587
2366 -49 191 -89 350 -89 355 0 22 15 -24 84 -261z m27141 -855 c39 -30 86
-67 106 -82 59 -44 778 -638 1131 -934 182 -154 433 -362 557 -464 124 -102
226 -192 226 -200 0 -8 -11 -16 -25 -18 -80 -10 -228 -46 -261 -62 -21 -11
-45 -20 -52 -20 -20 0 -748 726 -1023 1020 -126 135 -312 338 -413 450 -101
113 -220 245 -265 295 -88 97 -86 99 19 15z m2822 -1992 c180 -298 328 -659
458 -1118 207 -730 365 -1825 365 -2525 l0 -180 -102 -113 -102 -113 -28 253
c-131 1210 -307 2317 -499 3146 -47 200 -134 513 -173 616 -37 97 -34 109 20
115 6 0 34 -36 61 -81z m-15715 -3444 c277 -282 541 -513 764 -671 217 -154
666 -400 919 -502 72 -29 215 -95 319 -148 470 -235 1076 -491 1481 -623 88
-29 248 -90 355 -135 107 -45 299 -124 425 -174 236 -94 263 -106 255 -115 -6
-5 -254 -53 -345 -66 -119 -17 -476 -139 -800 -273 -202 -84 -623 -287 -840
-406 l-90 -50 -59 25 c-69 28 -75 32 -58 43 9 5 -5 15 -40 29 -94 37 -383 164
-395 174 -7 6 -11 13 -8 17 2 4 -66 38 -151 76 -86 38 -158 74 -161 81 -2 7
-12 10 -21 7 -9 -4 -14 -3 -10 2 11 11 -16 33 -74 61 -29 14 -46 23 -38 21 68
-19 67 -19 35 -1 -16 9 -32 20 -35 24 -3 4 -32 19 -65 35 -38 18 -54 30 -43
32 9 2 29 -3 45 -12 24 -15 25 -15 8 -1 -11 9 -28 23 -38 32 -34 28 -232 116
-212 94 10 -11 24 -20 32 -20 7 0 13 -4 13 -10 0 -14 -51 10 -75 35 -12 12
-26 20 -33 17 -7 -2 -12 3 -12 11 0 8 -11 17 -25 19 -14 3 -25 1 -25 -4 0 -5
-10 -3 -22 3 -13 7 -24 12 -26 10 -5 -3 -68 33 -102 59 -33 26 -190 104 -190
94 0 -2 -32 12 -71 31 -44 23 -78 34 -90 30 -10 -4 -19 -2 -19 4 0 17 -73 49
-101 44 -16 -3 -30 1 -38 11 -8 9 -10 16 -5 16 4 0 -1 7 -12 15 -22 17 -51 19
-56 5 -4 -13 -59 13 -78 35 -7 8 -16 12 -21 9 -5 -2 -22 2 -38 11 -41 20 -48
19 -55 -10 -6 -22 -9 -24 -26 -15 -11 6 -20 8 -20 5 0 -3 -10 1 -23 10 -13 8
-27 12 -30 9 -4 -4 -14 -1 -23 7 -16 13 -16 12 -5 -9 l12 -23 -31 16 c-18 9
-38 14 -46 11 -7 -3 -28 0 -45 6 l-32 11 8 206 c16 433 20 781 13 1206 -4 242
-9 447 -11 455 -17 68 -31 310 -18 310 5 0 96 -88 203 -196z m-11707 -1295
c-68 -106 -145 -207 -201 -265 -27 -27 -78 -92 -114 -143 -189 -271 -181 -261
-202 -250 -11 6 -22 8 -25 5 -3 -3 -22 7 -42 22 -40 31 -98 58 -107 49 -3 -3
-24 1 -46 9 -22 7 -52 11 -66 7 -18 -4 -23 -3 -17 7 6 9 3 9 -16 0 -17 -10
-24 -10 -27 -1 -2 6 -8 8 -14 5 -6 -4 -13 -1 -17 5 -5 8 -22 7 -62 -5 -62 -19
-493 -178 -589 -219 -147 -61 -396 -172 -575 -255 -181 -84 -247 -119 -430
-224 l-80 -45 -25 23 c-14 12 -101 88 -194 167 l-170 143 125 59 c178 84 595
259 794 332 287 106 675 227 1340 419 220 63 490 142 600 174 110 33 202 58
203 56 2 -1 -17 -35 -43 -75z m-2735 39 c0 -6 -6 -5 -15 2 -8 7 -15 14 -15 16
0 2 7 1 15 -2 8 -4 15 -11 15 -16z m14575 -755 c36 -17 41 -28 26 -52 -7 -11
-11 -9 -21 10 -7 13 -22 31 -34 41 -27 22 -16 23 29 1z m-4497 -130 c54 -71
140 -185 191 -255 50 -70 96 -130 101 -133 24 -15 4 -51 -88 -162 -54 -65
-153 -186 -220 -270 -122 -152 -159 -196 -502 -593 -102 -118 -241 -282 -310
-365 -142 -173 -247 -294 -484 -560 -93 -104 -235 -271 -315 -369 -80 -99
-223 -272 -316 -385 -256 -309 -352 -431 -567 -716 -108 -143 -247 -327 -310
-410 -62 -82 -121 -161 -130 -174 l-17 -24 -123 43 c-217 76 -595 219 -888
337 -157 63 -294 118 -304 122 -16 6 2 29 120 152 76 80 191 200 254 268 160
171 1008 993 1280 1240 124 113 315 293 425 400 110 108 281 270 380 360 99
90 317 300 485 466 168 165 370 362 450 436 239 222 652 613 705 668 27 28 57
51 66 51 10 0 58 -53 117 -127z m4620 59 c2 -7 -2 -10 -12 -6 -9 3 -16 11 -16
16 0 13 23 5 28 -10z m97 -72 c13 -6 15 -9 5 -9 -8 0 -22 4 -30 9 -18 12 -2
12 25 0z m865 -366 c0 -8 -4 -12 -10 -9 -5 3 -10 10 -10 16 0 5 5 9 10 9 6 0
10 -7 10 -16z m55 -25 c4 -6 0 -9 -11 -7 -19 3 -34 16 -34 31 0 10 37 -9 45
-24z m4249 -270 c374 -67 678 -239 911 -514 110 -130 154 -193 224 -318 85
-154 142 -306 146 -391 2 -40 16 -157 30 -261 30 -213 29 -331 -1 -740 -18
-239 -26 -273 -43 -205 -64 244 -189 600 -211 600 -5 0 -10 -5 -12 -12 -3 -8
-15 -9 -46 -1 -44 11 -58 7 -42 -12 8 -9 -3 -9 -40 1 -28 7 -55 16 -61 20 -6
4 -5 -4 2 -17 8 -13 14 -33 14 -45 1 -20 -1 -20 -40 -9 -82 25 -97 27 -89 13
4 -7 -1 -5 -12 4 -18 16 -85 48 -100 48 -3 0 -4 -11 -2 -25 4 -21 2 -24 -12
-20 -10 3 -22 0 -26 -6 -5 -8 -2 -10 7 -5 8 4 5 0 -6 -9 -13 -10 -29 -14 -45
-10 -41 10 -143 62 -167 85 -13 11 -23 16 -23 10 0 -17 -18 -11 -23 8 -3 9 -4
5 -4 -10 1 -23 5 -27 20 -22 11 3 17 2 14 -3 -3 -5 19 -18 49 -28 30 -10 54
-21 54 -25 0 -4 22 -22 50 -41 48 -33 64 -59 37 -59 -17 0 -49 -34 -41 -43 3
-3 -3 -10 -14 -16 -16 -8 -30 -6 -64 8 -40 18 -41 19 -12 16 25 -3 34 2 44 20
7 13 18 21 26 18 9 -3 14 2 14 12 0 9 -4 13 -10 10 -5 -3 -10 -2 -10 3 0 5 -8
12 -17 15 -10 3 -58 19 -106 37 -49 17 -97 32 -108 33 -10 1 -19 5 -19 9 0 4
-9 8 -19 8 -11 0 -22 4 -25 9 -3 5 -15 7 -26 4 -11 -3 -18 -9 -15 -13 9 -14
-47 -1 -66 16 -25 22 -31 15 -20 -24 11 -37 4 -39 -41 -16 -25 13 -20 5 26
-40 31 -31 56 -61 56 -67 0 -6 9 -8 20 -4 12 4 20 2 20 -5 0 -7 7 -10 15 -7 8
4 17 2 20 -4 4 -5 10 -7 13 -5 10 6 58 -31 50 -39 -3 -3 -22 1 -42 9 -32 13
-38 14 -43 1 -3 -8 -2 -26 1 -40 5 -20 3 -24 -11 -21 -20 3 -116 46 -184 82
-26 13 -53 24 -61 24 -9 0 -53 21 -99 46 -46 25 -122 63 -169 85 -150 70 -210
102 -210 110 0 11 -60 42 -60 32 -1 -5 -10 3 -20 16 -11 13 -20 19 -20 15 0
-5 -11 3 -24 19 -13 15 -31 27 -40 27 -9 0 -16 4 -16 9 0 5 -8 12 -19 16 -10
3 -31 17 -46 31 -20 19 -31 22 -39 14 -8 -8 -8 -13 0 -18 13 -8 37 -52 32 -58
-2 -2 -42 16 -88 41 -47 24 -88 41 -92 39 -5 -3 -8 0 -8 5 0 6 -6 11 -14 11
-7 0 -25 10 -39 23 -34 29 -112 77 -126 77 -6 0 -11 3 -11 8 0 4 -13 13 -29
20 -16 7 -42 24 -57 38 -45 38 -53 44 -61 44 -5 0 -14 9 -21 20 -7 11 -19 20
-27 20 -7 0 -20 9 -28 21 -8 11 -37 28 -63 39 -27 10 -83 35 -124 56 -97 48
-230 105 -230 98 0 -7 -81 37 -99 54 -7 7 -12 15 -9 17 6 6 132 -38 140 -50 4
-5 8 -6 8 -1 0 5 7 3 15 -4 8 -7 15 -10 15 -7 0 4 19 0 42 -9 44 -15 65 -10
33 9 -11 7 -58 28 -105 47 -47 20 -94 41 -105 47 -11 5 -38 16 -60 23 -65 20
-192 84 -173 88 9 2 38 -8 65 -22 68 -35 307 -133 327 -134 5 0 12 -5 15 -11
4 -6 19 -12 33 -13 15 -1 24 -6 22 -10 -4 -7 10 -10 32 -7 4 0 10 -3 13 -8 3
-5 40 -24 81 -42 41 -18 102 -46 136 -62 33 -16 67 -29 75 -29 8 0 -1 8 -19
17 -21 10 -31 21 -28 30 3 8 2 12 -3 8 -13 -7 -41 5 -41 19 0 6 -21 19 -48 30
-26 10 -60 25 -77 32 -16 7 -86 36 -155 64 -175 73 -252 112 -257 132 -3 10
-9 16 -13 13 -4 -3 -11 2 -14 11 -3 8 -10 12 -16 9 -5 -3 -10 -2 -10 3 0 5 -6
9 -12 9 -7 0 -55 19 -107 42 -52 23 -104 42 -115 43 -28 2 -275 -119 -456
-224 -573 -331 -1056 -687 -1620 -1192 -205 -184 -195 -175 -182 -151 5 11 29
41 51 67 26 30 39 52 35 62 -17 44 480 577 776 832 414 356 785 603 1270 848
409 207 797 352 1228 460 188 47 290 64 477 76 341 23 507 20 679 -11z"/>
<path d="M47570 58710 c-80 -10 -300 -25 -490 -34 -190 -9 -401 -21 -470 -27
-318 -26 -583 -82 -800 -170 -69 -28 -147 -60 -174 -70 -27 -10 -64 -33 -82
-50 -29 -28 -32 -36 -29 -79 8 -106 71 -165 268 -251 51 -22 166 -81 256 -131
268 -149 380 -188 537 -188 113 0 171 15 331 86 l128 57 125 -7 c321 -16 418
-25 472 -46 64 -24 81 -25 141 -4 55 19 59 24 181 214 208 326 256 440 227
546 -16 61 -44 89 -128 131 -76 37 -77 38 -212 40 -85 1 -190 -5 -281 -17z"/>
<path d="M36687 55731 c-69 -23 -165 -79 -273 -159 -307 -228 -649 -419 -886
-496 -162 -53 -286 -76 -446 -83 -140 -6 -143 -6 -157 -32 -41 -73 -55 -109
-55 -142 0 -106 92 -326 187 -444 27 -33 70 -73 97 -90 45 -28 56 -30 135 -29
99 1 136 13 336 109 233 113 468 265 920 598 232 171 350 271 421 357 155 185
150 311 -13 392 -85 41 -177 48 -266 19z"/>
<path d="M44293 43515 c-53 -16 -112 -50 -233 -133 -52 -36 -166 -114 -252
-173 -132 -91 -338 -245 -425 -319 -25 -20 -30 -62 -10 -78 9 -8 93 -10 278
-5 430 9 435 9 600 -43 77 -24 111 -45 404 -246 229 -157 404 -243 620 -306
84 -25 329 -73 515 -102 179 -28 426 -92 422 -109 -2 -9 3 -11 13 -7 9 3 13 2
10 -4 -3 -6 -12 -10 -19 -10 -6 0 -27 -16 -46 -35 -35 -36 -32 -48 4 -18 12
10 6 1 -13 -19 -18 -20 -39 -34 -46 -32 -7 3 -27 -15 -46 -40 -30 -42 -50 -63
-33 -33 6 9 3 8 -8 -1 -14 -12 -44 -3 -205 56 -354 132 -607 202 -853 238
-128 18 -277 14 -374 -11 -61 -16 -179 -73 -279 -134 -35 -21 -129 -73 -208
-116 -165 -88 -237 -139 -279 -197 -32 -44 -37 -70 -17 -85 19 -16 356 3 475
26 56 11 152 23 212 27 l110 7 1 -49 c1 -86 15 -144 40 -168 13 -13 65 -37
114 -54 108 -38 208 -44 245 -14 27 22 18 49 -20 57 -36 8 -44 19 -58 74 -13
54 -4 75 39 90 74 26 142 8 180 -47 40 -58 53 -97 41 -129 -12 -37 1 -71 30
-77 13 -3 68 -8 123 -11 91 -5 104 -4 145 17 69 35 90 85 90 214 0 160 12 175
128 154 140 -26 699 -262 740 -313 12 -14 6 -18 -57 -37 -39 -11 -73 -25 -76
-29 -17 -28 205 -53 281 -32 23 6 61 28 85 50 59 51 95 68 289 136 286 100
336 135 491 342 41 54 110 134 155 179 85 84 119 141 164 274 37 108 39 263 5
473 -34 215 -42 247 -62 254 -21 8 -30 -10 -38 -76 -16 -132 -31 -167 -137
-308 -55 -73 -124 -158 -153 -189 -53 -56 -54 -57 -99 -51 -25 4 -61 13 -81
21 -32 14 -35 18 -34 58 0 24 4 78 8 121 7 64 14 86 39 121 36 50 52 110 45
166 -6 44 -18 52 -29 18 -12 -38 -136 -153 -197 -183 -49 -24 -71 -28 -140
-28 -243 0 -903 174 -1380 364 -229 92 -446 194 -710 336 -365 195 -416 212
-524 178z"/>
<path d="M40924 41580 c-32 -13 -71 -65 -113 -153 -109 -230 -114 -359 -20
-594 17 -42 35 -84 40 -92 12 -22 39 -92 39 -101 0 -11 -43 1 -53 14 -11 15
-7 -3 44 -169 23 -77 48 -160 55 -185 7 -25 37 -111 68 -191 72 -188 105 -321
113 -440 5 -86 3 -102 -16 -141 -45 -94 -85 -108 -183 -65 -101 45 -204 153
-284 296 -26 47 -105 173 -176 278 -142 212 -182 294 -209 428 -23 115 -49
323 -49 397 0 31 -4 59 -9 63 -6 3 -8 -14 -7 -40 1 -25 2 -45 1 -45 -2 0 -24
12 -51 27 -54 30 -74 47 -74 61 0 5 -8 16 -17 23 -16 13 -17 12 -4 -3 9 -12
10 -18 2 -18 -6 0 -14 8 -18 18 -6 17 -52 61 -65 62 -15 0 4 -29 22 -35 10 -3
21 -13 24 -21 4 -11 -2 -10 -24 6 -16 11 -32 25 -35 30 -3 4 -24 18 -48 29
-23 12 -64 41 -92 65 -48 43 -49 45 -32 63 16 19 16 21 -7 43 -14 12 -27 30
-29 39 -2 9 -2 -4 0 -29 10 -113 71 -298 180 -545 132 -297 184 -390 398 -705
108 -157 189 -303 234 -418 46 -116 75 -359 107 -872 9 -146 22 -355 30 -465
39 -552 26 -1206 -46 -2285 -23 -346 -24 -374 -8 -387 26 -22 45 7 101 162 30
83 94 233 142 335 149 316 227 537 268 765 19 102 22 156 22 360 0 132 -3 259
-8 283 -7 38 -5 42 13 42 11 0 20 4 20 9 0 5 -8 8 -17 7 -13 -1 -19 8 -21 29
-3 30 -3 30 55 32 32 2 112 10 177 18 97 13 121 13 128 3 6 -10 8 -9 8 2 0 9
9 16 20 17 11 1 20 -3 20 -8 0 -6 -4 -8 -9 -4 -5 3 -12 2 -15 -3 -2 -4 4 -9
15 -9 10 -1 19 4 19 12 0 15 92 31 134 23 23 -5 21 3 -42 126 -74 147 -183
330 -336 564 -95 146 -140 222 -134 228 2 1 36 -4 75 -12 53 -10 87 -11 124
-4 196 37 390 265 465 545 28 107 26 328 -5 455 -66 272 -118 416 -206 570
-125 222 -240 472 -260 568 -5 26 -11 32 -32 32 -18 0 -24 -4 -20 -14 4 -11 1
-13 -10 -9 -11 4 -14 2 -9 -5 5 -9 -6 -12 -37 -12 -24 0 -65 -3 -92 -6 -45 -7
-47 -8 -43 -35 3 -16 1 -29 -4 -29 -4 0 -8 11 -8 24 0 43 -69 295 -114 415
-24 64 -50 143 -57 176 -18 81 -16 255 4 335 17 70 14 82 -19 70z m203 -1092
c-2 -13 -4 -3 -4 22 0 25 2 35 4 23 2 -13 2 -33 0 -45z m0 -80 c-3 -8 -6 -5
-6 6 -1 11 2 17 5 13 3 -3 4 -12 1 -19z m0 -2830 c-3 -8 -6 -5 -6 6 -1 11 2
17 5 13 3 -3 4 -12 1 -19z"/>
<path d="M39933 41040 c1 -6 18 -21 37 -32 l35 -21 -22 21 c-12 12 -26 22 -32
22 -5 0 -12 5 -14 10 -4 7 -5 7 -4 0z"/>
<path d="M40010 40986 c0 -3 9 -10 20 -16 11 -6 20 -8 20 -6 0 3 -9 10 -20 16
-11 6 -20 8 -20 6z"/>
<path d="M41291 40904 c0 -11 3 -14 6 -6 3 7 2 16 -1 19 -3 4 -6 -2 -5 -13z"/>
<path d="M48152 37670 c0 -19 2 -27 5 -17 2 9 2 25 0 35 -3 9 -5 1 -5 -18z"/>
<path d="M48141 37584 c0 -11 3 -14 6 -6 3 7 2 16 -1 19 -3 4 -6 -2 -5 -13z"/>
<path d="M41421 37529 c-14 -5 -31 -7 -38 -5 -7 3 -30 -1 -50 -8 -21 -7 -43
-11 -50 -9 -6 2 -33 -3 -60 -11 -63 -19 -25 -20 74 -2 228 43 259 45 250 22
-4 -10 0 -12 16 -8 13 3 16 7 8 10 -11 4 -11 6 0 13 19 12 -120 10 -150 -2z"/>
<path d="M41771 37455 c0 -5 6 -21 14 -35 8 -14 14 -20 14 -15 0 6 -6 21 -14
35 -8 14 -14 21 -14 15z"/>
<path d="M48111 37404 c0 -11 3 -14 6 -6 3 7 2 16 -1 19 -3 4 -6 -2 -5 -13z"/>
<path d="M48101 37344 c0 -11 3 -14 6 -6 3 7 2 16 -1 19 -3 4 -6 -2 -5 -13z"/>
<path d="M41820 37341 c0 -6 4 -13 10 -16 6 -3 7 1 4 9 -7 18 -14 21 -14 7z"/>
<path d="M48092 37250 c0 -14 2 -19 5 -12 2 6 2 18 0 25 -3 6 -5 1 -5 -13z"/>
<path d="M45072 36965 c-83 -90 -179 -224 -216 -300 -62 -127 -92 -300 -83
-475 6 -114 26 -187 73 -268 l28 -47 18 95 c10 52 22 163 28 247 18 284 43
401 124 577 41 90 88 217 83 223 -3 2 -27 -21 -55 -52z"/>
<path d="M48091 36994 c0 -11 3 -14 6 -6 3 7 2 16 -1 19 -3 4 -6 -2 -5 -13z"/>
<path d="M45643 36575 c-74 -52 -37 -201 75 -301 59 -53 187 -114 312 -148 65
-18 341 -46 455 -46 95 0 358 23 505 44 153 22 467 46 600 46 279 0 518 -71
680 -201 l62 -51 27 25 c41 39 103 67 211 94 46 12 121 17 250 17 144 0 223
-4 500 -25 243 -19 577 21 700 83 131 67 188 220 114 308 -22 26 -33 30 -74
30 -59 0 -84 -25 -95 -95 -21 -144 -188 -182 -445 -100 -306 97 -440 120 -705
119 -210 0 -269 -10 -378 -65 -32 -16 -64 -29 -72 -29 -8 0 -35 15 -60 34
-119 92 -362 136 -740 136 -308 0 -444 -20 -692 -101 -166 -54 -314 -91 -438
-109 -106 -16 -295 -16 -370 -1 -121 26 -216 91 -231 159 -10 48 -55 146 -76
170 -25 26 -82 30 -115 7z"/>
<path d="M47033 35357 c-18 -40 -3 -68 80 -154 144 -150 237 -210 517 -334
238 -105 370 -140 525 -141 68 0 137 6 180 16 92 22 138 37 131 43 -3 3 15 19
40 34 115 73 217 228 185 278 -8 12 -31 12 -168 -2 -191 -21 -448 -21 -638 -3
-302 30 -452 48 -490 59 -58 16 -175 68 -175 78 0 5 -5 9 -10 9 -14 0 -120 71
-120 81 0 4 -9 10 -19 14 -11 3 -21 16 -23 28 -3 20 -4 20 -15 -6z"/>
<path d="M46381 31529 c-6 -18 -9 -34 -7 -36 2 -2 9 10 15 28 6 18 9 34 7 36
-2 2 -9 -10 -15 -28z"/>
<path d="M46354 31455 c-5 -17 -8 -33 -9 -37 0 -3 -3 -10 -7 -14 -5 -4 -8 -14
-7 -23 0 -10 4 -8 9 7 5 12 14 22 21 22 6 0 9 6 6 14 -3 8 -1 16 5 18 8 3 8 9
0 23 -10 18 -11 17 -18 -10z"/>
<path d="M25458 22823 c7 -3 16 -2 19 1 4 3 -2 6 -13 5 -11 0 -14 -3 -6 -6z"/>
<path d="M25378 22803 c7 -3 16 -2 19 1 4 3 -2 6 -13 5 -11 0 -14 -3 -6 -6z"/>
<path d="M25338 22793 c7 -3 16 -2 19 1 4 3 -2 6 -13 5 -11 0 -14 -3 -6 -6z"/>
<path d="M25298 22783 c7 -3 16 -2 19 1 4 3 -2 6 -13 5 -11 0 -14 -3 -6 -6z"/>
<path d="M25258 22773 c7 -3 16 -2 19 1 4 3 -2 6 -13 5 -11 0 -14 -3 -6 -6z"/>
<path d="M36440 41845 c0 -27 35 -155 43 -155 4 0 6 -8 3 -17 -4 -13 22 -48
87 -118 324 -353 553 -661 887 -1196 102 -162 224 -339 235 -339 5 0 -34 106
-71 192 -60 143 -360 655 -497 848 -114 162 -256 338 -395 491 -155 171 -292
309 -292 294z"/>
<path d="M32130 37214 c-161 -18 -261 -47 -495 -144 -182 -75 -636 -304 -905
-457 -146 -82 -303 -170 -350 -196 -167 -90 -569 -253 -684 -277 -70 -14 -91
-37 -81 -87 20 -112 135 -263 236 -311 57 -28 250 -55 323 -46 70 8 274 60
339 85 148 58 581 305 1077 614 91 57 197 122 237 144 104 59 335 164 428 194
359 118 810 138 1215 53 146 -31 230 -59 410 -136 135 -59 260 -103 267 -96 2
2 -49 40 -113 86 -326 232 -668 392 -1039 486 -250 63 -406 85 -630 89 -110 2
-216 1 -235 -1z"/>
<path d="M37436 36468 c-76 -9 -209 -59 -294 -110 -30 -18 -89 -67 -132 -108
-61 -60 -87 -95 -129 -175 -73 -140 -95 -218 -96 -335 0 -87 3 -99 28 -143 62
-105 168 -126 245 -49 21 21 75 109 126 205 81 152 97 174 166 241 89 85 146
110 250 110 83 0 122 -18 203 -99 92 -91 132 -174 167 -345 15 -76 32 -146 38
-156 18 -32 31 103 28 276 -6 239 -37 359 -131 499 -101 151 -262 216 -469
189z"/>
<path d="M31065 35958 c-27 -11 -129 -53 -225 -93 -96 -40 -224 -93 -283 -116
-148 -59 -152 -70 -17 -43 23 5 227 16 258 14 6 0 23 0 37 0 58 0 72 0 115 -1
50 -2 35 -13 -31 -23 -94 -16 -91 -71 6 -123 61 -32 219 -78 235 -68 5 3 11 2
14 -3 3 -5 -36 -49 -86 -98 -180 -177 -324 -370 -409 -547 -48 -101 -63 -181
-33 -175 10 2 38 38 67 88 88 154 255 327 410 428 117 76 406 202 463 202 8 0
10 -18 6 -65 -13 -166 99 -353 262 -434 161 -81 355 -90 538 -27 85 30 156 74
232 146 113 106 169 222 182 380 l7 80 41 0 c23 0 65 -3 95 -7 l53 -6 -5 -66
c-7 -89 -21 -130 -63 -192 -35 -52 -40 -79 -16 -87 6 -2 52 36 100 85 65 66
99 109 132 173 l45 85 116 6 c147 8 274 42 425 114 122 57 224 119 224 135 0
6 -46 10 -120 10 -193 0 -522 28 -645 55 -60 14 -171 43 -245 65 -264 79 -474
107 -744 97 -185 -6 -323 -28 -551 -88 -182 -47 -260 -66 -299 -73 -20 -4 -42
6 -86 37 -33 22 -60 45 -60 49 0 5 -3 7 -7 5 -5 -3 -15 2 -23 11 -13 14 -12
15 3 9 9 -3 17 -2 17 4 0 5 -9 13 -21 17 -11 4 -25 19 -32 32 -16 31 -23 32
-82 8z m1038 -583 c23 -4 47 -41 47 -69 0 -14 -64 -76 -79 -76 -17 0 -76 47
-87 69 -23 45 21 96 73 86 13 -3 33 -7 46 -10z"/>
<path d="M37070 35349 c-52 -16 -91 -50 -138 -120 -77 -114 -86 -188 -43 -345
20 -77 21 -91 13 -265 -9 -176 -11 -188 -45 -279 -20 -52 -39 -113 -43 -135
l-7 -40 32 29 31 30 1 -30 c0 -22 17 6 70 115 69 140 72 146 192 270 68 69
155 169 194 221 159 214 162 289 16 437 -103 104 -185 138 -273 112z"/>
<path d="M30861 34822 c-106 -38 -122 -91 -22 -72 81 15 206 12 411 -10 188
-20 536 -28 526 -12 -3 5 -60 12 -127 15 -105 6 -272 33 -474 78 -27 6 -97 13
-155 15 -86 4 -115 1 -159 -14z"/>
<path d="M28622 31879 c-25 -115 -34 -207 -30 -309 3 -98 6 -112 37 -174 49
-96 137 -188 218 -228 57 -28 77 -33 143 -33 72 0 81 3 199 60 110 53 130 60
181 59 79 -2 178 -48 250 -118 67 -65 91 -75 120 -46 25 25 20 52 -27 137 -41
75 -39 107 12 152 89 78 250 128 457 141 81 5 160 13 175 16 52 13 124 55 163
96 74 76 135 198 99 198 -6 0 -33 -20 -60 -44 -63 -56 -106 -76 -166 -76 -66
1 -102 16 -223 91 -149 93 -186 105 -276 88 -93 -17 -156 -55 -272 -161 -136
-125 -171 -143 -262 -134 -72 6 -267 59 -385 103 -167 62 -252 117 -316 202
l-25 34 -12 -54z"/>
<path d="M29960 30416 c-80 -13 -215 -46 -317 -76 -73 -22 -192 -26 -352 -12
-188 17 -268 -4 -436 -116 -91 -61 -194 -106 -287 -126 -42 -9 -34 -31 20 -51
61 -24 133 -66 143 -85 5 -8 56 -116 114 -240 194 -415 227 -465 456 -671 51
-47 97 -99 118 -135 64 -110 104 -141 231 -182 78 -25 278 -58 411 -68 174
-12 252 33 399 231 90 121 171 202 319 321 135 107 152 127 134 145 -9 9 -34
2 -106 -30 -52 -22 -112 -47 -135 -55 -41 -15 -41 -15 -63 16 -34 46 -37 116
-8 173 24 48 82 114 133 150 15 11 38 30 51 41 34 31 259 139 330 159 33 10
70 21 83 26 13 5 45 9 73 9 45 0 54 4 99 46 27 25 63 71 81 102 37 66 122 180
147 197 9 7 65 37 123 67 103 53 242 139 235 145 -1 2 -22 -4 -46 -12 -24 -8
-91 -25 -149 -36 -99 -20 -126 -21 -401 -16 -290 6 -484 22 -658 51 -253 44
-579 58 -742 32z m508 -755 c-14 -22 -102 -92 -141 -112 -24 -13 -38 -14 -60
-7 -20 8 -32 7 -40 -1 -15 -15 -27 -14 -21 3 4 11 0 13 -14 9 -11 -2 -23 0
-26 6 -4 6 -12 11 -18 11 -7 0 -7 -4 0 -13 8 -10 6 -13 -8 -13 -34 0 -30 22 6
35 19 7 34 17 34 22 0 5 5 9 11 9 5 0 7 -4 4 -10 -3 -5 -1 -10 4 -10 6 0 11 4
11 9 0 5 15 11 33 15 24 5 29 9 17 16 -18 11 -18 11 110 43 96 24 119 21 98
-12z m-238 -31 c-8 -5 -24 -9 -35 -9 -16 1 -16 2 5 9 35 11 48 11 30 0z m-120
-90 c0 -5 -2 -10 -4 -10 -3 0 -8 5 -11 10 -3 6 -1 10 4 10 6 0 11 -4 11 -10z"/>
<path d="M38727 22339 c7 -7 15 -10 18 -7 3 3 -2 9 -12 12 -14 6 -15 5 -6 -5z"/>
<path d="M79110 51218 c-51 -116 -6703 -15835 -6707 -15851 -5 -16 85 -17
1822 -15 l1827 3 2451 5792 c1349 3186 2455 5789 2458 5785 5 -5 2038 -4826
2066 -4899 4 -10 -143 -13 -713 -13 l-719 -1 -1597 -1677 -1596 -1677 3025 -5
3025 -5 694 -1649 c381 -907 695 -1650 697 -1652 2 -2 825 -3 1829 -2 l1824 3
-2818 6674 -2818 6675 23 25 c16 18 2160 2288 2355 2494 l36 37 -3573 0 -3572
0 -19 -42z"/>
<path d="M96340 51253 c-685 -28 -1318 -76 -1655 -124 -785 -111 -1537 -378
-2085 -738 -380 -250 -715 -580 -1002 -986 -395 -558 -604 -1192 -705 -2140
-26 -249 -26 -1391 0 -1660 92 -935 302 -1582 685 -2115 593 -826 1331 -1309
2437 -1595 469 -122 850 -176 1485 -210 789 -42 1312 -55 2218 -55 742 0 844
-4 1002 -41 401 -93 656 -290 846 -652 141 -272 209 -624 221 -1147 5 -227 3
-277 -11 -349 -40 -199 -129 -328 -306 -448 -161 -109 -446 -197 -770 -238
-247 -31 -427 -37 -1192 -42 l-778 -5 -1 -47 c-1 -50 -4 -47 -14 12 l-6 37
-197 0 c-360 0 -781 29 -1112 76 -446 63 -624 124 -775 265 -85 80 -133 154
-172 269 -42 124 -53 238 -53 551 l0 249 -1676 0 -1676 0 5 -627 c3 -352 10
-679 16 -743 66 -665 180 -1138 366 -1515 342 -694 927 -1155 1855 -1465 616
-206 1316 -327 2225 -385 294 -18 767 -35 1012 -35 203 0 181 -7 196 65 3 11
5 1 6 -22 l1 -43 538 0 c1033 0 1660 47 2341 176 1170 220 2078 671 2663 1321
431 479 698 1040 813 1708 56 326 60 411 60 1185 0 709 -6 879 -41 1295 -44
527 -135 1083 -234 1435 -166 586 -479 1103 -880 1455 -673 591 -1633 913
-3045 1019 -335 26 -631 36 -1335 46 -907 13 -1172 27 -1550 81 -608 86 -1049
231 -1394 459 -175 116 -281 230 -351 382 -76 166 -100 321 -92 596 6 204 20
291 68 410 191 479 913 830 1939 941 402 43 476 46 1315 46 821 0 895 -3 1205
-41 543 -67 900 -242 1029 -506 72 -146 74 -163 79 -535 l3 -333 1680 0 1679
0 0 463 c0 623 -18 946 -70 1301 -118 801 -349 1325 -780 1770 -232 240 -472
412 -809 580 -711 356 -1590 551 -2891 641 -172 12 -422 14 -1240 13 -564 -1
-1054 -3 -1090 -5z"/>
<path d="M110060 51253 c-685 -28 -1318 -76 -1655 -124 -785 -111 -1537 -378
-2085 -738 -380 -250 -715 -580 -1002 -986 -395 -558 -604 -1192 -705 -2140
-26 -249 -26 -1391 0 -1660 92 -935 302 -1582 685 -2115 593 -826 1331 -1309
2437 -1595 469 -122 850 -176 1485 -210 789 -42 1312 -55 2218 -55 742 0 844
-4 1002 -41 401 -93 656 -290 846 -652 141 -272 209 -624 221 -1147 5 -227 3
-277 -11 -349 -40 -199 -129 -328 -306 -448 -161 -109 -446 -197 -770 -238
-247 -31 -427 -37 -1192 -42 l-778 -5 -1 -47 c-1 -50 -4 -47 -14 12 l-6 37
-197 0 c-360 0 -781 29 -1112 76 -446 63 -624 124 -775 265 -85 80 -133 154
-172 269 -42 124 -53 238 -53 551 l0 249 -1676 0 -1676 0 5 -627 c3 -352 10
-679 16 -743 66 -665 180 -1138 366 -1515 342 -694 927 -1155 1855 -1465 616
-206 1316 -327 2225 -385 294 -18 767 -35 1012 -35 203 0 181 -7 196 65 3 11
5 1 6 -22 l1 -43 538 0 c1033 0 1660 47 2341 176 1170 220 2078 671 2663 1321
431 479 698 1040 813 1708 56 326 60 411 60 1185 0 709 -6 879 -41 1295 -44
527 -135 1083 -234 1435 -166 586 -479 1103 -880 1455 -673 591 -1633 913
-3045 1019 -335 26 -631 36 -1335 46 -907 13 -1172 27 -1550 81 -608 86 -1049
231 -1394 459 -175 116 -281 230 -351 382 -76 166 -100 321 -92 596 6 204 20
291 68 410 191 479 913 830 1939 941 402 43 476 46 1315 46 821 0 895 -3 1205
-41 543 -67 900 -242 1029 -506 72 -146 74 -163 79 -535 l3 -333 1680 0 1679
0 0 463 c0 623 -18 946 -70 1301 -118 801 -349 1325 -780 1770 -232 240 -472
412 -809 580 -711 356 -1590 551 -2891 641 -172 12 -422 14 -1240 13 -564 -1
-1054 -3 -1090 -5z"/>
<path d="M118320 43305 l0 -7955 1675 0 1675 0 0 6585 0 6586 1231 1297 c678
713 1264 1330 1303 1370 l70 72 -2977 0 -2977 0 0 -7955z"/>
<path d="M129980 51253 c-685 -28 -1318 -76 -1655 -124 -785 -111 -1537 -378
-2085 -738 -380 -250 -715 -580 -1002 -986 -395 -558 -604 -1192 -705 -2140
-26 -249 -26 -1391 0 -1660 92 -935 302 -1582 685 -2115 593 -826 1331 -1309
2437 -1595 469 -122 850 -176 1485 -210 789 -42 1312 -55 2218 -55 742 0 844
-4 1002 -41 401 -93 656 -290 846 -652 141 -272 209 -624 221 -1147 5 -227 3
-277 -11 -349 -40 -199 -129 -328 -306 -448 -161 -109 -446 -197 -770 -238
-247 -31 -427 -37 -1192 -42 l-778 -5 -1 -47 c-1 -50 -4 -47 -14 12 l-6 37
-197 0 c-360 0 -781 29 -1112 76 -446 63 -624 124 -775 265 -85 80 -133 154
-172 269 -42 124 -53 238 -53 551 l0 249 -1676 0 -1676 0 5 -627 c3 -352 10
-679 16 -743 66 -665 180 -1138 366 -1515 342 -694 927 -1155 1855 -1465 616
-206 1316 -327 2225 -385 294 -18 767 -35 1012 -35 203 0 181 -7 196 65 3 11
5 1 6 -22 l1 -43 538 0 c1033 0 1660 47 2341 176 1170 220 2078 671 2663 1321
431 479 698 1040 813 1708 56 326 60 411 60 1185 0 709 -6 879 -41 1295 -44
527 -135 1083 -234 1435 -166 586 -479 1103 -880 1455 -673 591 -1633 913
-3045 1019 -335 26 -631 36 -1335 46 -907 13 -1172 27 -1550 81 -608 86 -1049
231 -1394 459 -175 116 -281 230 -351 382 -76 166 -100 321 -92 596 6 204 20
291 68 410 191 479 913 830 1939 941 402 43 476 46 1315 46 821 0 895 -3 1205
-41 543 -67 900 -242 1029 -506 72 -146 74 -163 79 -535 l3 -333 1680 0 1679
0 0 463 c0 623 -18 946 -70 1301 -118 801 -349 1325 -780 1770 -232 240 -472
412 -809 580 -711 356 -1590 551 -2891 641 -172 12 -422 14 -1240 13 -564 -1
-1054 -3 -1090 -5z"/>
<path d="M138230 49585 l0 -1675 2290 0 2290 0 0 -6280 0 -6280 1680 0 1680 0
0 6280 0 6280 2295 0 2295 0 0 1675 0 1675 -6265 0 -6265 0 0 -1675z"/>
<path d="M155420 51218 c-51 -116 -6703 -15835 -6707 -15851 -5 -16 85 -17
1822 -15 l1827 3 2451 5792 c1349 3186 2455 5789 2458 5785 5 -5 2038 -4826
2066 -4899 4 -10 -143 -13 -713 -13 l-719 -1 -1597 -1677 -1596 -1677 3025 -5
3025 -5 694 -1649 c381 -907 695 -1650 697 -1652 2 -2 825 -3 1829 -2 l1824 3
-2818 6674 -2818 6675 23 25 c16 18 2160 2288 2355 2494 l36 37 -3573 0 -3572
0 -19 -42z"/>
<path d="M103445 31038 c-3 -13 -4 -1310 -3 -2883 l3 -2860 348 -3 c229 -1
347 1 347 8 0 5 0 1297 0 2870 0 1573 0 2867 0 2875 0 13 -45 15 -345 15
l-345 0 -5 -22z"/>
<path d="M108160 29921 c0 -676 -4 -1142 -9 -1145 -5 -4 -25 15 -44 41 -98
132 -264 264 -442 352 -165 81 -262 113 -441 146 -134 24 -318 34 -459 24
-120 -8 -299 -37 -370 -59 -16 -6 -51 -17 -78 -25 -105 -33 -251 -100 -347
-159 -406 -249 -689 -650 -814 -1151 -93 -379 -106 -802 -34 -1215 58 -337
221 -704 415 -935 166 -198 354 -345 578 -451 155 -73 237 -99 460 -146 82
-17 477 -17 570 0 65 12 87 17 190 44 149 39 310 114 445 206 112 77 257 220
319 314 24 37 48 65 53 62 5 -3 8 -119 8 -257 0 -139 0 -258 0 -264 0 -10 73
-13 330 -13 l330 0 0 2885 0 2885 -330 0 -330 0 0 -1139z m-985 -1186 c262
-47 441 -136 612 -306 193 -192 311 -442 380 -807 21 -114 25 -571 5 -677 -44
-232 -83 -358 -159 -505 -182 -353 -481 -556 -870 -589 -112 -10 -339 1 -418
19 -210 50 -369 136 -523 284 -190 183 -318 430 -387 751 -20 91 -35 258 -35
390 0 472 144 872 409 1136 164 164 354 263 581 304 93 17 310 17 405 0z"/>
<path d="M120886 31044 c-3 -9 -6 -524 -6 -1145 0 -621 -4 -1129 -8 -1129 -5
0 -14 11 -20 25 -16 34 -155 179 -223 230 -155 118 -345 210 -534 260 -178 47
-415 68 -605 54 -117 -8 -296 -38 -365 -59 -16 -6 -51 -17 -78 -25 -105 -33
-252 -100 -347 -159 -452 -279 -740 -721 -849 -1306 -56 -299 -56 -770 0
-1060 116 -599 404 -1041 854 -1312 92 -56 241 -125 330 -152 28 -9 64 -20 80
-26 17 -5 80 -19 140 -32 96 -20 139 -23 335 -22 264 0 352 13 570 85 171 57
371 176 506 301 67 63 185 206 197 240 13 38 18 -24 20 -258 l2 -259 313 -3
312 -2 0 2885 0 2885 -309 0 c-272 0 -310 -2 -315 -16z m-1037 -2305 c261 -42
464 -143 635 -314 181 -182 314 -456 365 -755 27 -162 31 -209 31 -402 0 -226
-10 -322 -56 -513 -57 -240 -180 -462 -346 -620 -122 -117 -230 -183 -383
-233 -238 -78 -556 -77 -804 4 -189 62 -380 202 -513 376 -56 73 -72 98 -133
214 -62 117 -127 329 -156 514 -20 127 -17 478 5 605 57 326 164 567 345 774
151 174 374 297 621 346 82 16 302 18 389 4z"/>
<path d="M116364 30935 c-147 -29 -273 -124 -336 -252 -32 -65 -33 -73 -33
-183 0 -109 2 -118 32 -181 90 -183 306 -291 515 -258 324 52 499 364 358 639
-30 58 -133 160 -190 187 -128 60 -221 73 -346 48z"/>
<path d="M141043 30935 c-225 -44 -373 -217 -373 -435 0 -233 156 -399 412
-440 193 -30 413 77 497 243 123 242 3 523 -264 615 -93 33 -171 37 -272 17z"/>
<path d="M146788 29813 l-3 -538 -332 -3 -333 -2 0 -295 0 -295 333 -2 332 -3
6 -1200 c4 -746 10 -1223 17 -1260 29 -173 63 -288 120 -400 48 -97 85 -150
156 -223 142 -147 328 -235 601 -284 45 -8 173 -13 363 -13 l293 0 0 290 0
290 -193 6 c-209 7 -230 10 -329 41 -127 39 -233 142 -274 263 -50 147 -48 94
-52 1310 -2 626 -2 1150 2 1162 l5 23 420 0 c273 0 420 3 420 10 0 6 1 137 1
293 l0 282 -443 5 -443 5 -2 535 -2 535 -330 3 -331 2 -2 -537z"/>
<path d="M124035 29360 c-608 -97 -1055 -423 -1321 -961 -237 -479 -300 -1163
-160 -1734 97 -396 282 -722 548 -970 158 -146 327 -252 553 -345 244 -101
616 -155 904 -131 221 19 369 47 516 98 396 137 692 390 869 742 31 60 96 239
96 262 0 5 -157 9 -350 9 l-349 0 -17 -37 c-138 -298 -488 -483 -914 -483
-174 0 -318 26 -463 82 -323 124 -567 378 -682 710 -49 141 -76 287 -73 389
l3 84 1444 3 1444 2 -6 318 c-6 311 -15 422 -52 597 -148 710 -577 1181 -1215
1333 -225 54 -554 68 -775 32z m475 -625 c210 -36 344 -93 485 -205 204 -162
348 -476 372 -807 l6 -93 -1091 0 -1092 0 0 35 c0 74 47 263 98 390 88 220
226 400 397 515 138 93 229 129 435 169 72 14 297 12 390 -4z"/>
<path d="M134045 29364 c-565 -87 -976 -383 -1141 -821 -44 -116 -81 -348 -70
-436 2 -23 7 -71 11 -107 38 -401 284 -694 699 -834 128 -43 203 -60 371 -85
39 -6 142 -22 230 -36 88 -14 189 -30 225 -36 36 -5 90 -14 120 -19 30 -5 87
-14 125 -21 273 -44 497 -173 575 -333 141 -286 20 -589 -291 -734 -68 -31
-210 -68 -315 -82 -116 -16 -378 -8 -498 14 -353 66 -594 244 -677 502 l-21
64 -328 0 c-181 0 -331 -3 -333 -8 -6 -8 6 -82 29 -186 56 -252 209 -483 434
-652 81 -61 328 -194 361 -194 8 0 19 -4 25 -8 12 -10 57 -25 169 -55 157 -43
286 -63 501 -78 430 -31 857 68 1161 267 162 107 333 302 403 459 12 28 26 59
31 70 5 11 21 65 35 120 35 134 44 374 20 514 -37 214 -115 374 -251 520 -184
197 -468 329 -820 381 -70 10 -185 28 -480 75 -88 14 -191 30 -230 36 -167 25
-204 32 -281 55 -90 26 -183 82 -233 139 -106 122 -130 347 -54 514 70 154
226 276 426 334 238 70 545 63 782 -15 200 -67 356 -208 428 -388 l26 -65 330
-3 331 -2 0 26 c0 15 -5 45 -11 68 -6 22 -15 59 -21 81 -34 132 -111 289 -196
405 -275 371 -746 572 -1330 569 -97 -1 -217 -7 -267 -15z"/>
<path d="M137980 29364 c-564 -81 -993 -394 -1148 -839 -46 -133 -57 -202 -56
-380 0 -179 8 -237 51 -369 86 -264 282 -465 563 -578 148 -59 243 -83 460
-117 36 -6 137 -22 225 -36 88 -14 188 -30 223 -35 34 -6 92 -15 130 -21 229
-35 301 -54 417 -108 222 -105 335 -265 335 -478 0 -146 -49 -263 -154 -368
-148 -148 -390 -225 -704 -225 -315 0 -573 73 -758 214 -109 83 -189 201 -231
341 l-8 30 -334 3 -333 2 7 -62 c14 -121 58 -266 117 -383 92 -185 230 -333
428 -460 64 -41 108 -64 245 -125 59 -26 204 -71 305 -93 372 -82 727 -84
1065 -6 386 89 683 283 857 560 102 161 168 405 168 613 0 109 -26 267 -60
369 -100 299 -306 502 -646 638 -136 54 -205 69 -519 119 -33 5 -132 21 -220
35 -204 32 -270 43 -350 55 -176 26 -215 34 -274 52 -259 79 -378 266 -336
526 52 320 357 511 816 512 186 0 345 -27 478 -82 166 -69 286 -177 357 -323
24 -50 44 -96 44 -103 0 -9 76 -12 333 -10 l332 3 -3 30 c-6 53 -43 194 -69
258 -67 169 -153 299 -282 427 -228 227 -532 364 -914 415 -144 18 -425 18
-557 -1z"/>
<path d="M143770 29364 c-545 -78 -965 -373 -1133 -795 -59 -151 -71 -218 -71
-424 0 -175 2 -198 27 -293 92 -352 333 -586 722 -702 120 -36 145 -41 325
-69 36 -6 137 -22 225 -36 189 -30 254 -40 355 -56 318 -48 494 -120 620 -251
85 -89 130 -204 130 -335 0 -145 -49 -262 -155 -368 -146 -147 -389 -225 -703
-225 -444 0 -775 145 -929 408 -14 23 -35 73 -48 110 l-23 67 -331 3 c-318 2
-331 2 -331 -17 0 -43 32 -196 56 -268 33 -99 93 -220 152 -303 104 -148 312
-316 490 -397 43 -19 86 -38 97 -43 59 -26 204 -71 305 -93 157 -35 228 -44
418 -58 428 -29 843 64 1152 259 238 151 422 402 481 660 40 175 47 317 24
480 -56 393 -289 675 -685 830 -165 64 -188 69 -680 146 -52 9 -153 25 -225
36 -71 11 -161 25 -200 31 -169 25 -204 32 -264 50 -167 52 -276 144 -318 269
-61 180 -18 386 109 525 89 98 207 166 358 206 199 53 492 51 704 -6 140 -37
304 -137 382 -232 39 -47 124 -206 124 -230 0 -10 67 -13 329 -13 182 0 332 4
335 8 6 10 -27 160 -50 229 -28 84 -99 227 -154 309 -70 103 -223 255 -330
326 -212 141 -448 225 -733 263 -144 18 -425 18 -557 -1z"/>
<path d="M163560 29361 c-216 -34 -348 -74 -535 -166 -475 -231 -809 -670
-943 -1235 -20 -82 -27 -122 -54 -280 -18 -103 -18 -648 0 -750 37 -221 52
-285 89 -405 142 -452 418 -817 785 -1039 198 -119 418 -199 663 -241 341 -58
687 -36 1010 64 446 138 792 461 949 883 57 155 94 139 -311 136 l-346 -3 -25
-45 c-101 -188 -248 -313 -463 -393 -156 -58 -239 -72 -444 -72 -136 0 -200 4
-264 18 -293 63 -532 211 -707 438 -89 115 -187 333 -222 494 -18 80 -34 227
-30 270 l3 40 1440 2 1440 3 3 272 c4 337 -9 477 -65 716 -85 359 -233 631
-470 863 -243 239 -536 376 -924 433 -145 22 -428 20 -579 -3z m452 -621 c29
-6 78 -15 108 -21 315 -61 576 -293 689 -612 48 -137 79 -286 83 -402 l3 -70
-1088 -3 c-958 -2 -1088 0 -1093 13 -4 8 -1 54 6 102 56 405 262 720 577 881
110 56 183 79 343 111 63 12 309 13 372 1z"/>
<path d="M77720 29340 c-484 -31 -886 -205 -1200 -520 -314 -314 -492 -708
-561 -1240 -26 -194 -14 -592 22 -775 5 -27 15 -75 21 -105 99 -498 399 -955
798 -1216 233 -152 444 -232 760 -286 102 -17 530 -17 630 0 273 48 413 93
620 199 256 131 500 357 661 613 43 68 120 217 149 290 12 30 26 64 31 75 24
59 86 278 99 358 39 223 43 279 43 532 0 299 -15 434 -77 667 -102 386 -270
679 -533 928 -290 274 -701 449 -1118 475 -189 12 -224 12 -345 5z m370 -645
c261 -51 453 -154 623 -334 274 -290 418 -770 378 -1253 -18 -215 -58 -407
-110 -533 -78 -186 -154 -307 -269 -427 -219 -228 -493 -338 -842 -338 -425 0
-770 192 -998 555 -123 197 -203 475 -220 762 -49 825 336 1438 986 1567 94
19 358 20 452 1z"/>
<path d="M97485 29338 c-633 -43 -1153 -351 -1455 -863 -180 -304 -276 -641
-300 -1050 -40 -676 154 -1275 545 -1684 168 -175 376 -322 575 -404 19 -8 49
-20 65 -27 94 -39 265 -85 425 -112 99 -17 528 -17 630 0 184 31 298 61 453
122 725 283 1158 1010 1157 1943 -1 630 -192 1160 -555 1536 -320 332 -725
509 -1235 539 -169 10 -161 10 -305 0z m390 -643 c243 -46 445 -155 613 -329
148 -155 242 -324 322 -581 45 -145 75 -434 65 -625 -22 -412 -133 -722 -355
-989 -38 -45 -150 -140 -216 -183 -363 -234 -911 -238 -1274 -9 -168 105 -307
256 -408 441 -41 76 -98 209 -112 265 -5 17 -15 55 -23 85 -41 156 -57 296
-57 498 1 312 52 549 170 787 173 349 459 571 825 640 100 18 352 18 450 0z"/>
<path d="M130110 29339 c-278 -18 -507 -77 -723 -184 -306 -153 -538 -402
-646 -695 -33 -90 -63 -212 -53 -222 4 -4 154 -7 332 -6 l323 3 34 64 c89 168
216 285 393 360 257 110 651 121 908 27 180 -66 338 -208 410 -368 6 -16 16
-38 22 -50 33 -75 43 -151 49 -363 4 -121 5 -223 3 -227 -2 -5 -281 -8 -620
-8 -652 0 -757 -6 -968 -50 -155 -32 -302 -82 -418 -141 -103 -54 -130 -70
-203 -126 -274 -209 -423 -529 -423 -908 0 -507 269 -905 750 -1113 210 -91
513 -135 767 -113 470 42 829 200 1095 485 32 34 58 54 58 46 0 -8 2 -114 3
-235 l2 -220 313 -3 312 -2 0 1383 c0 1475 0 1473 -49 1667 -58 233 -178 439
-348 600 -209 199 -476 324 -813 380 -58 9 -350 32 -375 28 -5 0 -66 -5 -135
-9z m1045 -2269 c13 -21 5 -410 -10 -480 -79 -376 -392 -667 -817 -759 -177
-38 -468 -27 -638 25 -217 65 -386 229 -436 421 -19 74 -19 262 0 324 86 278
359 442 781 468 193 12 1113 13 1120 1z"/>
<path d="M150590 29339 c-436 -29 -798 -172 -1052 -417 -138 -133 -217 -245
-288 -410 -38 -88 -80 -226 -80 -264 0 -17 18 -18 330 -18 l330 0 22 48 c138
300 465 472 898 472 261 0 474 -62 630 -183 110 -86 199 -227 242 -384 18 -67
21 -107 22 -293 l1 -215 -670 -6 c-368 -4 -686 -10 -705 -13 -19 -4 -69 -11
-110 -17 -242 -35 -494 -129 -673 -251 -79 -54 -203 -173 -257 -246 -120 -166
-189 -360 -209 -592 -19 -226 23 -457 120 -653 112 -227 319 -424 561 -536
252 -116 542 -166 822 -142 310 27 490 77 727 199 134 68 219 131 338 249 52
51 95 93 97 93 2 0 4 -106 4 -235 l0 -235 313 2 312 3 0 1405 c0 1435 0 1429
-36 1590 -102 447 -381 766 -819 936 -168 64 -333 98 -565 114 -83 5 -157 9
-165 8 -8 0 -71 -5 -140 -9z m1058 -2444 c2 -104 -2 -211 -8 -254 -64 -407
-402 -731 -851 -815 -110 -21 -373 -21 -486 -1 -150 26 -254 70 -360 150 -142
106 -223 276 -223 465 1 361 300 598 795 629 66 5 347 8 625 7 l505 -1 3 -180z"/>
<path d="M159445 29339 c-322 -21 -618 -117 -875 -284 -384 -248 -671 -666
-789 -1150 -45 -182 -53 -234 -71 -419 -34 -367 27 -823 151 -1123 57 -139 97
-220 153 -313 90 -147 160 -235 285 -360 230 -228 525 -391 836 -461 164 -37
225 -43 460 -43 238 0 270 3 470 44 27 6 101 28 165 50 513 175 911 586 1029
1065 31 126 42 186 35 196 -3 5 -147 9 -333 9 l-328 0 -17 -58 c-54 -195 -211
-404 -386 -514 -294 -185 -723 -223 -1050 -92 -348 139 -618 472 -714 879 -10
39 -19 79 -22 90 -47 194 -46 610 1 830 62 289 173 518 337 691 95 100 165
153 280 212 173 90 314 122 535 122 308 0 545 -88 742 -274 111 -105 179 -209
285 -436 l12 -25 324 -3 c178 -1 327 1 332 6 4 4 3 25 -3 47 -6 22 -15 58 -21
80 -102 388 -337 726 -658 947 -230 159 -542 265 -825 283 -191 12 -224 12
-340 4z"/>
<path d="M80694 29297 c-3 -8 -3 -628 -1 -1378 4 -1434 2 -1373 46 -1594 26
-133 93 -307 170 -440 153 -267 404 -470 721 -583 192 -69 459 -102 668 -83
217 20 332 44 499 107 188 70 340 169 487 315 59 60 110 109 112 109 2 0 4
-104 4 -230 l0 -230 313 2 312 3 0 1985 0 1985 -330 0 -330 0 -5 -1265 c-6
-1370 -3 -1291 -59 -1467 -116 -361 -404 -602 -802 -669 -119 -20 -378 -15
-469 9 -246 65 -403 176 -518 369 -41 68 -93 195 -111 268 -5 25 -16 68 -22
95 -10 37 -14 384 -18 1375 l-6 1325 -328 3 c-271 2 -328 0 -333 -11z"/>
<path d="M155140 29295 c-388 -52 -708 -208 -928 -452 -36 -40 -69 -73 -74
-73 -5 0 -8 98 -8 218 0 119 1 223 0 230 0 9 -73 12 -330 12 l-330 0 2 -1987
3 -1988 328 0 327 0 0 1162 c0 1165 3 1319 36 1482 86 430 385 717 829 797
108 19 331 18 436 -2 214 -40 405 -155 513 -308 59 -82 77 -116 114 -212 30
-77 37 -104 65 -229 7 -34 12 -472 16 -1370 l6 -1320 330 0 330 0 3 1290 c3
1312 0 1452 -34 1640 -66 356 -226 644 -462 835 -186 150 -397 239 -652 276
-116 16 -391 16 -520 -1z"/>
<path d="M71710 29256 c0 -8 4 -16 8 -18 4 -1 77 -178 161 -393 85 -214 223
-565 308 -780 85 -214 181 -460 215 -545 33 -85 67 -171 75 -190 8 -19 19 -44
23 -55 4 -11 33 -85 65 -165 31 -80 60 -154 65 -165 4 -11 33 -85 65 -165 31
-80 62 -156 67 -170 6 -14 14 -34 18 -45 6 -16 99 -251 130 -330 45 -112 144
-364 150 -380 4 -11 12 -31 18 -45 6 -14 36 -90 67 -170 32 -80 61 -154 66
-165 4 -11 20 -49 34 -84 l25 -65 -101 -250 c-113 -282 -111 -277 -133 -328
-9 -21 -27 -66 -40 -100 -13 -35 -32 -81 -41 -103 -10 -22 -22 -50 -26 -62 -5
-13 -14 -35 -20 -50 -7 -16 -15 -37 -19 -48 -4 -11 -12 -31 -18 -45 -6 -14
-57 -140 -113 -280 -56 -140 -106 -259 -110 -265 -5 -5 -9 -15 -9 -22 0 -11
70 -13 370 -11 l371 3 95 240 c52 132 98 249 103 260 5 11 48 119 96 240 48
121 91 229 96 240 4 11 87 220 184 465 97 245 180 454 185 465 5 11 70 175
145 365 75 190 193 487 262 660 68 173 128 325 134 338 5 12 13 32 18 45 4 12
13 33 19 47 6 14 86 214 177 445 91 231 170 429 174 440 5 11 13 31 19 45 84
203 472 1191 472 1201 0 5 -145 9 -365 9 l-364 0 -15 -32 c-12 -29 -68 -174
-156 -408 -77 -204 -142 -377 -150 -395 -5 -11 -34 -87 -65 -170 -31 -82 -82
-215 -112 -295 -30 -80 -67 -179 -83 -220 -16 -41 -54 -142 -85 -225 -31 -82
-82 -215 -112 -295 -30 -80 -58 -154 -63 -165 -8 -19 -74 -193 -159 -420 -23
-60 -48 -126 -56 -145 -34 -89 -106 -284 -119 -322 -8 -26 -22 -22 -34 10 -31
81 -128 337 -152 402 -78 208 -142 377 -150 395 -5 11 -29 76 -55 145 -26 69
-50 134 -55 145 -5 11 -34 88 -65 170 -31 83 -60 159 -65 170 -5 11 -29 76
-55 145 -70 187 -106 283 -115 305 -5 11 -29 76 -55 145 -26 69 -50 134 -55
145 -5 11 -34 88 -65 170 -31 83 -60 159 -65 170 -5 11 -29 76 -55 145 -64
170 -105 281 -115 305 -4 11 -17 43 -27 70 l-19 50 -372 3 c-317 2 -372 0
-372 -12z"/>
<path d="M86920 29254 c-279 -41 -501 -128 -690 -270 -81 -61 -193 -178 -247
-255 -25 -38 -50 -66 -55 -63 -4 3 -8 131 -8 285 l0 279 -330 0 -330 0 0
-1990 0 -1990 330 0 329 0 4 1193 c4 1253 3 1232 47 1392 6 22 15 54 19 70 27
101 103 242 180 335 226 275 549 400 1034 400 l167 0 0 315 0 315 -177 -1
c-98 -1 -221 -8 -273 -15z"/>
<path d="M89530 29263 c0 -7 141 -445 220 -683 21 -63 88 -270 150 -460 62
-190 136 -417 164 -505 29 -88 93 -281 141 -430 48 -148 120 -369 160 -490
131 -401 398 -1218 438 -1345 20 -64 2 -61 340 -58 l310 3 23 70 c12 39 32
104 44 145 12 41 26 86 30 100 5 14 25 79 45 145 20 66 40 131 45 145 4 14 18
59 30 100 12 41 32 109 45 150 13 41 38 122 55 180 17 58 35 116 40 130 4 14
18 59 30 100 12 41 29 95 36 120 17 55 24 76 64 210 17 58 42 139 55 180 13
41 33 109 46 150 39 134 60 203 95 315 19 61 39 128 45 150 7 22 20 67 31 100
10 33 22 74 27 90 26 84 83 273 91 295 7 22 13 44 35 128 10 35 28 13 49 -60
10 -35 22 -74 26 -88 8 -24 46 -149 110 -360 68 -227 102 -336 110 -360 5 -14
19 -59 31 -100 31 -107 53 -179 94 -315 20 -66 42 -136 47 -155 6 -19 14 -46
19 -60 8 -25 50 -165 109 -360 46 -152 48 -160 64 -210 7 -25 24 -79 36 -120
12 -41 26 -86 30 -100 5 -14 23 -72 40 -130 17 -58 42 -139 55 -180 23 -73 48
-158 87 -290 10 -36 24 -76 31 -90 l13 -25 331 -3 331 -2 57 177 c32 98 86
264 120 368 35 105 113 345 175 535 62 190 125 383 140 430 16 47 79 240 140
430 62 190 129 397 150 460 21 63 88 270 150 460 127 391 216 664 301 923 33
98 59 182 59 187 0 6 -132 10 -349 10 -323 0 -349 -1 -354 -17 -12 -39 -65
-218 -86 -295 -6 -21 -15 -53 -20 -70 -6 -18 -14 -49 -19 -68 -6 -19 -24 -82
-41 -138 -18 -57 -38 -127 -46 -155 -7 -29 -73 -254 -145 -502 -73 -247 -135
-463 -140 -480 -13 -46 -46 -160 -75 -260 -30 -100 -39 -132 -55 -190 -6 -22
-16 -56 -21 -75 -6 -19 -14 -48 -19 -65 -4 -16 -21 -75 -38 -130 -16 -55 -33
-111 -36 -125 -57 -205 -97 -334 -106 -344 -6 -6 -11 -4 -14 5 -3 8 -19 61
-36 119 -18 58 -48 155 -67 215 -19 61 -43 137 -54 170 -10 33 -30 94 -43 135
-13 41 -43 136 -66 210 -23 74 -51 160 -60 190 -29 88 -85 264 -129 410 -23
74 -53 167 -65 205 -13 39 -38 117 -56 175 -33 107 -87 280 -119 380 -10 30
-27 84 -39 120 -11 36 -36 115 -55 175 -19 61 -54 171 -76 245 -23 74 -44 141
-46 148 -4 10 -80 12 -357 10 l-353 -3 -21 -65 c-23 -70 -123 -382 -156 -490
-29 -93 -87 -275 -108 -340 -9 -30 -32 -102 -50 -160 -17 -58 -42 -136 -55
-175 -12 -38 -37 -117 -55 -175 -18 -58 -43 -136 -55 -175 -13 -38 -42 -131
-65 -205 -23 -74 -58 -184 -77 -245 -19 -60 -43 -137 -54 -170 -10 -33 -30
-94 -43 -135 -13 -41 -43 -136 -66 -210 -23 -74 -53 -166 -65 -205 -13 -38
-28 -89 -34 -112 -7 -24 -16 -43 -22 -43 -13 0 -19 18 -74 195 -26 83 -55 175
-65 205 -9 30 -32 102 -50 160 -33 107 -87 280 -119 380 -27 82 -55 171 -96
305 -21 66 -46 145 -55 175 -10 30 -34 105 -53 165 -19 61 -60 189 -90 285
-31 96 -74 236 -97 310 -47 152 -103 328 -130 410 -9 30 -36 115 -59 188 l-42
132 -350 0 c-192 0 -349 -3 -349 -7z"/>
<path d="M102245 29259 c-156 -23 -358 -71 -379 -91 -6 -4 -16 -8 -23 -8 -19
0 -148 -62 -213 -101 -132 -81 -280 -219 -355 -329 -20 -30 -42 -55 -48 -55
-9 0 -13 73 -14 265 -2 146 -3 271 -3 278 0 9 -73 12 -330 12 l-330 0 0 -1990
0 -1990 330 2 329 3 4 1195 c5 1249 4 1202 46 1384 15 63 68 199 99 256 67
121 170 238 285 325 104 79 303 161 467 193 109 22 138 24 340 31 l205 6 3
313 2 312 -177 -1 c-98 -1 -205 -5 -238 -10z"/>
<path d="M109648 29265 c-3 -4 9 -50 27 -103 18 -53 79 -239 135 -412 56 -173
119 -367 140 -430 21 -63 88 -270 150 -460 61 -190 124 -383 140 -430 15 -47
78 -240 140 -430 62 -190 140 -430 175 -535 34 -104 97 -296 139 -425 42 -129
114 -350 160 -490 l83 -255 316 -3 316 -2 21 72 c12 40 25 84 30 98 5 14 25
79 45 145 20 66 40 131 45 145 4 14 13 45 20 70 7 25 16 56 21 70 7 22 61 201
91 300 6 19 14 46 19 60 8 25 50 165 109 360 17 58 36 119 41 135 5 17 20 66
33 110 102 336 121 399 151 495 13 41 33 109 45 150 12 41 26 86 30 100 5 14
25 79 45 145 20 66 40 131 45 145 4 14 18 59 30 100 12 41 30 100 39 130 10
30 26 85 37 123 20 70 39 86 50 40 3 -16 19 -68 34 -118 16 -49 40 -128 54
-175 14 -47 30 -98 35 -115 45 -148 96 -317 153 -505 6 -19 14 -46 19 -60 4
-14 24 -79 44 -145 20 -66 40 -131 45 -145 4 -14 13 -45 20 -70 7 -25 16 -56
21 -70 7 -22 61 -201 91 -300 6 -19 14 -46 19 -60 9 -30 76 -251 151 -500 6
-19 14 -46 19 -60 9 -27 59 -193 109 -360 17 -58 46 -150 63 -205 l32 -100
334 0 334 0 14 40 c15 43 115 350 238 730 43 132 111 339 150 460 40 121 123
375 185 565 61 190 120 370 130 400 10 30 69 210 130 400 62 190 129 397 150
460 21 63 84 257 140 430 111 342 145 445 155 473 7 16 -14 17 -343 17 -193 0
-353 -3 -356 -8 -3 -6 -243 -824 -287 -979 -5 -18 -14 -50 -20 -70 -5 -21 -14
-51 -18 -68 -5 -16 -21 -70 -36 -120 -15 -49 -31 -106 -37 -125 -5 -19 -14
-51 -19 -70 -6 -19 -14 -48 -19 -65 -4 -16 -31 -107 -59 -202 -28 -94 -57
-195 -65 -225 -8 -29 -69 -240 -136 -468 -67 -228 -125 -429 -129 -445 -4 -17
-14 -42 -21 -55 l-13 -25 -8 25 c-16 53 -93 298 -114 365 -13 39 -42 131 -65
205 -23 74 -58 185 -77 245 -19 61 -44 139 -55 175 -12 36 -29 90 -39 120 -32
100 -86 273 -119 380 -18 58 -41 130 -50 160 -10 30 -39 123 -65 205 -26 83
-63 200 -82 260 -19 61 -43 137 -54 170 -10 33 -30 94 -43 135 -13 41 -43 136
-66 210 -23 74 -52 164 -64 200 l-23 65 -351 3 -351 2 -47 -147 c-25 -82 -55
-173 -64 -203 -23 -68 -73 -229 -135 -425 -26 -82 -55 -175 -65 -205 -9 -30
-32 -102 -50 -160 -34 -111 -104 -333 -164 -520 -13 -41 -43 -136 -66 -210
-63 -201 -109 -348 -130 -410 -10 -30 -33 -102 -50 -160 -18 -58 -48 -154 -67
-215 -45 -142 -75 -237 -79 -253 -2 -7 -8 -11 -13 -8 -9 6 -14 21 -91 266 -23
74 -52 167 -65 205 -13 39 -37 117 -55 175 -18 58 -42 137 -55 175 -13 39 -42
131 -65 205 -23 74 -57 182 -76 240 -18 58 -43 137 -54 175 -12 39 -30 95 -40
125 -21 64 -74 231 -120 380 -18 58 -43 137 -55 175 -13 39 -42 131 -65 205
-23 74 -58 185 -77 245 -19 61 -44 139 -55 175 -12 36 -28 88 -37 115 l-17 50
-345 3 c-190 1 -348 0 -351 -3z"/>
<path d="M116172 27283 l3 -1988 330 0 330 0 3 1988 2 1987 -335 0 -335 0 2
-1987z"/>
<path d="M140820 27280 l0 -1990 328 2 327 3 0 1985 0 1985 -327 3 -328 2 0
-1990z"/>
</g>
</svg>
